
        <svg xmlns="http://www.w3.org/2000/svg" xmlns:xlink="http://www.w3.org/1999/xlink" version="1.1" width="3171.4285714285716" 
        height="1594.2857142857142" viewBox="0 0 3171.4285714285716 1594.2857142857142">
			<rect fill="#000000" width="3171.4285714285716" height="1594.2857142857142"/>
			<g transform="scale(8.571428571428571) translate(10, 10)">
				<defs id="SvgjsDefs1059"><linearGradient id="SvgjsLinearGradient1066"><stop id="SvgjsStop1067" stop-color="#8f5e25" offset="0"></stop><stop id="SvgjsStop1068" stop-color="#fbf4a1" offset="0.5"></stop><stop id="SvgjsStop1069" stop-color="#8f5e25" offset="1"></stop></linearGradient><linearGradient id="SvgjsLinearGradient1070"><stop id="SvgjsStop1071" stop-color="#8f5e25" offset="0"></stop><stop id="SvgjsStop1072" stop-color="#fbf4a1" offset="0.5"></stop><stop id="SvgjsStop1073" stop-color="#8f5e25" offset="1"></stop></linearGradient><linearGradient id="SvgjsLinearGradient1074"><stop id="SvgjsStop1075" stop-color="#8f5e25" offset="0"></stop><stop id="SvgjsStop1076" stop-color="#fbf4a1" offset="0.5"></stop><stop id="SvgjsStop1077" stop-color="#8f5e25" offset="1"></stop></linearGradient></defs><g id="SvgjsG1060" featureKey="rootContainer" transform="matrix(1,0,0,1,0,0)" fill="url(#SvgjsLinearGradient1066)"><rect y="0" height="1" width="1" opacity="0"></rect><rect y="161" width="350" height="5"></rect></g><g id="SvgjsG1061" featureKey="monogramFeature-0" transform="matrix(3.1337351627752454,0,0,3.1337351627752454,140.29939725583714,-76.57612816889699)" fill="url(#SvgjsLinearGradient1070)"><path d="M12 60 l-10.5 0 l0 -29.82 l19.08 0 l0 18.6 l-8.58 0 l0 11.22 z"></path></g><g id="SvgjsG1062" featureKey="nameFeature-0" transform="matrix(0.6317828739951012,0,0,0.6317828739951012,-0.2020839789282635,123.65704845301114)" fill="url(#SvgjsLinearGradient1074)"><path d="M18.558 12.189 c0.1168 0.013984 0.23246 0.034609 0.34644 0.061796 c0.086796 0.12 0.1616 0.2484 0.2232 0.38281 c0.048008 0.14199 0.07082 0.29121 0.068008 0.4412 c0.017188 0.934 0.13398 1.8632 0.3484 2.7724 c0.0076172 0.087616 0.0076172 0.17602 0 0.26363 c-0.23121 0.38238 -0.5964 0.3 -0.9972 0.2132 c-0.096796 -0.10441 -0.1848 -0.21723 -0.26199 -0.33684 c-0.16762 -0.29121 -0.31762 -0.592 -0.4492 -0.9012 c-0.29078 -0.6528 -0.772 -1.2028 -1.38 -1.578 c-0.3668 -0.26359 -0.8044 -0.4112 -1.2556 -0.42404 c-0.33641 -0.0076172 -0.6732 -0.014024 -1.0096 -0.034414 c-0.484 -0.029219 -0.9672 -0.07922 -1.4508 -0.1048 c-0.5592 -0.029219 -1.1196 -0.053204 -1.6792 -0.058788 c-0.9344 -0.0087892 -1.868 0 -2.8024 0 c-0.16039 -0.0096092 -0.3152 0.06078 -0.4128 0.18879 c-0.024414 0.096408 -0.04082 0.1948 -0.04922 0.29442 c-0.036797 1.6432 -0.056796 3.2856 -0.027578 4.93 c0.031992 1.7924 0.0067968 3.5864 0.007578 5.3796 c0 0.33641 0 0.6728 0.015586 1.0096 c0.018398 0.11039 0.049608 0.2184 0.092812 0.3216 c0.1 0.04922 0.20602 0.084024 0.31562 0.10324 c1.382 0.020781 2.7644 0.032774 4.1464 0.047968 c0.33558 -0.013203 0.6684 -0.067616 0.9904 -0.16281 c0.5932 -0.14039 1.0824 -0.5588 1.3124 -1.1236 c0.2852 -0.528 0.46596 -1.1056 0.53276 -1.702 c0.016016 -0.071992 0.042812 -0.14121 0.07922 -0.2052 c0.18641 -0.19039 0.4584 -0.26918 0.7176 -0.20797 c0.19199 -0.0067968 0.37277 0.089608 0.47476 0.25242 c0.1152 1.0336 0.14121 6.0404 0.035625 7.2764 c-0.27281 0.29442 -0.5964 0.17922 -0.9632 0.088008 c-0.0716 -0.11641 -0.13398 -0.2384 -0.18598 -0.3652 c-0.071212 -0.21 -0.11 -0.4332 -0.17359 -0.6476 c-0.0684 -0.2516 -0.14918 -0.4996 -0.24277 -0.7428 c-0.3268 -0.8624 -1.1248 -1.4564 -2.0448 -1.5228 c-0.26 -0.024805 -0.5212 -0.035195 -0.78244 -0.030781 c-1.0836 -0.0092188 -2.1664 -0.016016 -3.2496 -0.019609 c-0.2968 0 -0.5936 0.020391 -0.8516 0.03 l-0.21961 0.20558 c-0.0092188 0.28442 -0.023633 0.5816 -0.027226 0.8796 c-0.011211 0.9336 -0.012422 1.868 -0.028828 2.8016 c-0.0067968 0.37281 -0.03918 0.74564 -0.066368 1.1172 c-0.055196 0.67 -0.05 1.344 0.015586 2.0132 c0.041992 0.4076 0.05918 0.8184 0.073984 1.228 c0.033594 0.9336 0.058788 1.8668 0.088008 2.8 c-0.0076172 0.3984 0.10719 0.7896 0.32879 1.1208 c0.5564 0.25602 1.1316 0.4692 1.7204 0.63724 c0.18398 0.19359 0.24719 0.472 0.1652 0.72596 c-0.02 0.15398 -0.13359 0.27957 -0.2852 0.31438 c-0.62 0.13078 -1.2492 0.2152 -1.8816 0.25238 c-1.1584 0 -2.3168 0.014805 -3.4752 0.014024 c-0.37359 0.013203 -0.7472 -0.0048048 -1.1176 -0.054024 c-0.5904 -0.094412 -1.1908 -0.1116 -1.7856 -0.050392 c-0.1848 0.015586 -0.37082 0.012774 -0.55524 -0.008828 c-0.19398 0.0067968 -0.38398 -0.054804 -0.5372 -0.17402 c-0.1116 -0.26641 -0.1168 -0.5652 -0.014805 -0.8356 c0.093204 -0.17078 0.2648 -0.28438 0.4588 -0.30316 c0.29442 -0.053592 0.5912 -0.072384 0.886 -0.11476 c0.4208 -0.044412 0.77 -0.34602 0.8748 -0.75564 c0.1152 -0.35558 0.1732 -0.7272 0.1732 -1.1008 c0 -0.9344 0.013984 -1.8684 0.022774 -2.8024 c0.013203 -1.3824 0.027188 -2.7644 0.042384 -4.1468 c-0.0032031 -0.2248 0.0064064 -0.4492 0.028789 -0.6728 c0.11762 -1.1516 0.12121 -2.3116 0.01082 -3.4636 c-0.0916 -1.304 -0.077188 -2.6128 -0.087188 -3.9196 c-0.014805 -1.9428 -0.013203 -3.8856 -0.012422 -5.828 c-0.011992 -0.4864 -0.087576 -0.9688 -0.22438 -1.4352 c-0.095196 -0.36801 -0.35758 -0.6704 -0.70836 -0.8164 c-0.2752 -0.1168 -0.5672 -0.18918 -0.8648 -0.21558 c-0.1932 -0.005586 -0.37719 -0.084376 -0.51436 -0.22039 c-0.16879 -0.33039 -0.11879 -0.7304 0.12602 -1.0092 c0.11762 -0.031602 0.23723 -0.053204 0.35801 -0.064804 c2.4284 -0.0083984 4.8564 -0.005586 7.2848 -0.02 c1.8304 -0.010781 3.6592 -0.060392 5.4916 -0.06 c1.6064 0 3.2128 0.045588 4.8188 0.073204 z M35.232 40.2332 l0.0052736 0.013672 c-0.6732 -0.022383 -1.346 -0.026797 -2.0156 -0.0716 c-0.7816 -0.049608 -1.5568 -0.17641 -2.3136 -0.3784 c-0.1084 -0.028789 -0.21641 -0.058008 -0.32602 -0.084024 c-1.7776 -0.4552 -3.4432 -1.2696 -4.8944 -2.3928 c-0.3648 -0.26078 -0.7028 -0.5568 -1.0096 -0.8836 c-1.062 -1.0568 -1.91 -2.3088 -2.4976 -3.6872 c-0.35199 -0.9048 -0.6232 -1.8392 -0.8108 -2.792 c-0.13 -0.5832 -0.21442 -1.176 -0.25203 -1.7728 c-0.0083984 -0.22238 -0.063984 -0.44276 -0.089572 -0.66476 c-0.039219 -0.33359 -0.093204 -0.6672 -0.10082 -1.0016 c-0.015195 -0.7096 -0.023203 -1.4204 0 -2.1292 c0.0416 -0.9336 0.20398 -1.858 0.484 -2.7496 c0.6496 -2.2352 1.8444 -4.274 3.4776 -5.9328 c1.4628 -1.456 3.2608 -2.5312 5.2356 -3.1308 c1.174 -0.37359 2.3884 -0.6064 3.6176 -0.69404 c0.22281 -0.016016 0.4452 -0.045236 0.6668 -0.078048 c0.7368 -0.13441 1.4916 -0.1368 2.2296 -0.0067968 c0.18281 0.037188 0.36883 0.0584 0.55564 0.063592 c1.0444 0.06078 2.0788 0.24078 3.0824 0.53636 c1.1192 0.3016 2.184 0.778 3.1548 1.4112 c1.3504 0.8744 2.5588 1.9504 3.5836 3.1904 c1.1852 1.4072 2.0076 3.0832 2.3956 4.8812 c0.3168 1.2688 0.486 2.57 0.5044 3.8776 c-0.0028125 0.037188 -0.0028125 0.074804 0 0.11199 c0.11039 1.1524 0.025976 2.3152 -0.24922 3.4396 c-0.29398 1.6192 -0.83476 3.1836 -1.6024 4.6388 c-0.406 0.8012 -0.9344 1.5344 -1.5656 2.1732 c-0.9396 0.7944 -1.9332 1.5228 -2.9736 2.18 c-1.0476 0.5768 -2.1572 1.0332 -3.3076 1.3604 c-1.1792 0.36398 -2.4044 0.55636 -3.6384 0.57196 c-0.4484 0.0048048 -0.8968 0 -1.346 0 z M26.5766 26.305999999999997 l0.0016016 -0.0020703 c0.010781 0.3516 -0.011602 1.0276 0.063592 1.6928 c0.10879 0.9628 0.26918 1.9208 0.4424 2.8748 c0.13641 0.8096 0.33402 1.6072 0.59164 2.3868 c0.53 1.642 1.4596 3.1272 2.7056 4.3208 c1.2692 1.2448 2.9868 1.9248 4.7644 1.8856 c1.2296 -0.0716 2.438 -0.35442 3.5716 -0.8368 c0.9692 -0.4904 1.8356 -1.1616 2.5528 -1.9768 c0.934 -1.074 1.652 -2.3176 2.1152 -3.6628 c0.6204 -1.8008 0.99596 -3.6764 1.1176 -5.5772 c0.035195 -0.4832 0.084412 -0.9672 0.1152 -1.4496 c0.030391 -0.2216 0.028398 -0.446 -0.005586 -0.6668 c-0.086796 -0.4396 -0.12359 -0.8876 -0.10918 -1.3356 c0.0076172 -0.6724 -0.077576 -1.3428 -0.25238 -1.9924 c-0.19199 -0.682 -0.34879 -1.3736 -0.5364 -2.0572 c-0.25641 -0.936 -0.6088 -1.8432 -1.0516 -2.7068 c-0.6812 -1.2492 -1.6272 -2.3344 -2.7724 -3.1792 c-0.2332 -0.18719 -0.4852 -0.34918 -0.752 -0.484 c-2.0832 -1.0232 -3.6596 -1.074 -5.7556 -0.56636 c-1.4628 0.5112 -2.822 1.1812 -3.7812 2.4652 c-0.066796 0.089608 -0.14559 0.17039 -0.21598 0.25758 c-0.476 0.5768 -0.8664 1.2192 -1.16 1.9068 c-0.14441 0.34442 -0.30203 0.6832 -0.4292 1.034 c-0.3316 0.832 -0.5964 1.6888 -0.79244 2.5628 c-0.31442 1.6832 -0.4576 3.394 -0.4276 5.1064 z M75.834 38.5508 c0.25879 0.043592 0.5216 0.05082 0.8328 0.078436 c0.31922 0.24719 0.4448 0.6704 0.31242 1.0516 c-0.14762 0.27442 -0.43884 0.44044 -0.75004 0.42724 c-0.5604 0.0092188 -1.1212 0.006836 -1.6828 0.0060548 c-0.4112 0 -0.822 -0.010781 -1.2332 -0.0095704 c-1.3524 0.0064064 -2.68 -0.36281 -3.8352 -1.066 c-0.4116 -0.26 -0.7728 -0.5924 -1.0656 -0.98116 c-0.5364 -0.6708 -1.0604 -1.3504 -1.5384 -2.0664 c-0.5804 -0.87 -1.206 -1.7092 -1.8012 -2.5684 c-0.38281 -0.5524 -0.7492 -1.1156 -1.1176 -1.678 c-0.2868 -0.4372 -0.5616 -0.8832 -0.8464 -1.3208 c-0.5084 -0.7832 -1.0192 -1.5652 -1.532 -2.3456 c-0.14281 -0.21719 -0.29961 -0.4252 -0.4476 -0.6344 c-0.438 -0.11961 -0.8928 -0.1652 -1.346 -0.13559 c-0.37039 -0.057188 -0.7488 -0.02918 -1.1068 0.081212 c-0.031992 0.012812 -0.055588 0.046408 -0.10039 0.084024 c-0.038398 0.096796 -0.065196 0.19758 -0.079608 0.30078 c-0.016406 0.4104 -0.020391 0.82116 -0.023984 1.2324 c-0.021602 2.616 -0.041992 5.2316 -0.0616 7.8464 c-0.026406 0.4588 0.0016016 0.9192 0.083984 1.3712 c0.16238 0.29078 0.4572 0.48276 0.7884 0.51356 c0.22078 0.020781 0.44316 0.021562 0.6276 0.02957 c0.27922 0.22359 0.3732 0.6068 0.22961 0.934 c-0.083592 0.13078 -0.22359 0.2152 -0.3784 0.22801 c-0.4456 0.041992 -0.8916 0.088008 -1.3372 0.12641 c-0.14879 0.013594 -0.29801 0.013594 -0.4468 0 c-1.4508 -0.13641 -2.908 -0.1848 -4.3648 -0.1448 c-0.4484 0.0064064 -0.8968 0.0087892 -1.346 -0.0032031 c-0.11559 -0.025195 -0.22637 -0.068008 -0.32918 -0.12641 c-0.018789 -0.1448 -0.027578 -0.29121 -0.026367 -0.43724 c0.015195 -0.23121 0.16598 -0.43084 0.38398 -0.50884 c0.23961 -0.09922 0.4944 -0.16281 0.736 -0.25922 c0.21281 -0.085588 0.36602 -0.2752 0.40564 -0.5012 c0.021992 -0.11 0.035976 -0.22121 0.041992 -0.3332 c0.0516 -0.6696 0.1132 -1.3392 0.1468 -2.01 c0.020781 -0.33558 0.0087892 -0.6724 -0.035625 -1.0056 c-0.061212 -0.482 -0.087616 -0.96756 -0.078828 -1.4532 c0 -3.4752 0.0012109 -6.9504 0.0035938 -10.426 c0 -0.5968 0.053592 -1.1936 0.084376 -1.79 c0.0092188 -0.18641 0.034414 -0.37281 0.036016 -0.5592 c0.015586 -1.6436 0.023203 -3.288 0.041992 -4.9316 c0.0064064 -0.524 -0.075976 -1.0452 -0.24438 -1.5412 c-0.052812 -0.10762 -0.11801 -0.2084 -0.19442 -0.30078 l-1.1588 -0.33641 c-0.25199 -0.31238 -0.22801 -0.76436 0.055976 -1.0484 c0.768 -0.14801 1.5488 -0.2184 2.3308 -0.21 c2.7596 0.2252 5.5264 0.095588 8.2892 0.17637 c1.12 0.036797 2.2316 0.20879 3.3104 0.5124 c0.9428 0.2468 1.8308 0.668 2.618 1.2416 c0.4484 0.33641 0.896 0.6732 1.3352 1.0196 c1.0548 0.8552 1.7812 2.0496 2.0552 3.3796 c0.094804 0.39922 0.17039 0.8044 0.22758 1.2108 c0.072384 0.4812 0.068788 0.9712 -0.01043 1.4512 c-0.050392 0.2948 -0.0816 0.592 -0.14199 0.8836 c-0.0416 0.2568 -0.11199 0.5084 -0.21039 0.7496 c-0.36762 0.7792 -0.888 1.4768 -1.5304 2.0512 c-0.2752 0.25238 -0.5836 0.46596 -0.88 0.69316 c-0.6136 0.4956 -1.3452 0.8236 -2.1236 0.9524 c-0.3084 0.023594 -0.6024 0.14199 -0.84116 0.33879 c0.0048048 0.10078 0.028008 0.19957 0.068008 0.29195 c1.5036 2.23 3.0108 4.4576 4.522 6.6828 c0.31398 0.4628 0.6308 0.9284 0.9324 1.3988 c0.604 0.8996 1.2576 1.7656 1.9568 2.5932 c0.2268 0.30039 0.5532 0.5104 0.9204 0.5936 c0.29078 0.062384 0.5772 0.15039 0.87 0.20078 z M59.1956 13.729 c-0.17039 0.00078124 -0.33113 0.08 -0.43592 0.2148 c-0.029219 0.16398 -0.048828 0.33 -0.058828 0.4964 c-0.014414 0.9344 -0.023633 1.8688 -0.027226 2.8028 c-0.005586 1.5324 0 3.0648 -0.012812 4.5972 c0.0012109 0.5232 -0.037578 1.0456 -0.11598 1.5628 c-0.091992 0.6296 -0.10758 1.2676 -0.046796 1.9008 c0.028789 0.1068 0.075588 0.20801 0.13797 0.29922 c0.12238 0.0076172 0.23117 0.021211 0.33957 0.019609 c0.5584 -0.043984 1.1188 -0.050392 1.678 -0.019609 c0.5576 0.051992 1.1192 0.03918 1.6736 -0.038008 c1.804 -0.11719 3.3716 -1.2812 4.006 -2.974 c0.22879 -0.5924 0.38238 -1.2112 0.4572 -1.842 c0.29762 -1.5632 -0.081992 -3.1792 -1.044 -4.4468 c-0.045196 -0.05922 -0.087576 -0.12121 -0.13039 -0.18199 c-0.636 -0.8872 -1.5252 -1.5616 -2.5512 -1.9348 c-0.8904 -0.28078 -1.8152 -0.4368 -2.7484 -0.4628 c-0.37359 -0.018789 -0.74756 -0.016797 -1.1208 0.0064064 z M93.40699999999998 25.225 c-0.1748 0.061992 -0.33684 0.15305 -0.68724 0.32066 c0.4552 0.13398 0.7384 0.22277 1.0244 0.30156 c1.63 0.4492 3.0992 1.3524 4.2356 2.6044 c0.562 0.6048 0.9748 1.3328 1.2048 2.1256 c0.4688 1.5476 0.48436 3.1968 0.045156 4.7532 c-0.090392 0.3232 -0.2268 0.6316 -0.4044 0.916 c-0.6408 1.0624 -1.5676 1.9224 -2.6748 2.4816 c-1.0324 0.5232 -2.1372 0.89 -3.2776 1.0884 c-0.7356 0.1248 -1.48 0.18922 -2.2264 0.19242 c-2.502 0.0035938 -5.0044 0.0051952 -7.5072 0.004414 c-1.4192 0 -2.8384 0.008008 -4.2576 0.0096092 c-0.22121 0 -0.442 -0.012383 -0.6732 -0.01918 c-0.25719 -0.3552 -0.30117 -0.822 -0.11559 -1.2196 c0.34961 -0.3816 0.822 -0.2748 1.1696 -0.4716 c0.20879 -0.16961 0.33598 -0.42 0.35039 -0.6884 c0.031602 -0.37121 0.046408 -0.7448 0.047188 -1.118 c0.0092188 -3.772 0.015625 -7.5436 0.019219 -11.315 c0.0023828 -1.7552 0.0023828 -3.5104 0 -5.2656 c0.018789 -0.5228 -0.015195 -1.0464 -0.10199 -1.562 c-0.07078 -0.36762 -0.073164 -0.74524 -0.0071484 -1.1136 c0.087188 -0.8168 0.10797 -1.6396 0.061952 -2.4596 c-0.0032031 -0.2968 -0.08 -0.5884 -0.22359 -0.848 c-0.21398 -0.27238 -0.55276 -0.41636 -0.89756 -0.38156 c-0.1948 0.033594 -0.39281 -0.042424 -0.5152 -0.19801 c-0.0416 -0.35801 0.030781 -0.72 0.20758 -1.034 c0.0684 -0.042812 0.1416 -0.0784 0.21801 -0.1052 c0.10961 -0.023203 0.22121 -0.034805 0.3332 -0.034414 c1.6804 0.004414 3.3608 0.0096092 5.0412 0.016406 c0.7844 0 1.5684 -0.0032031 2.3524 -0.0024219 c0.8216 0 1.6444 -0.021211 2.464 0.015195 c0.9676 0.041992 1.9396 0.095976 2.9024 0.21996 c0.9628 0.12199 1.9124 0.33078 2.838 0.62316 c1.2512 0.4096 2.344 1.1988 3.1268 2.2576 c0.1316 0.18078 0.24801 0.37277 0.3468 0.57356 c0.35398 0.7016 0.58636 1.4584 0.68716 2.2376 c0.033203 0.37121 0.027188 0.7448 -0.017617 1.1148 c-0.010781 0.18442 -0.086796 0.36602 -0.093984 0.55044 c-0.0484 0.7132 -0.29879 1.398 -0.722 1.974 c-0.31398 0.4632 -0.6524 0.9096 -1.0136 1.3372 c-0.4112 0.4864 -0.9092 0.89244 -1.4684 1.1976 c-0.5752 0.34762 -1.1736 0.65524 -1.7908 0.92044 z M84.72699999999999 38.0742 c0.22039 0.39039 0.54276 0.7136 0.9324 0.9348 c0.13281 0.036406 0.2032 0.05922 0.27602 0.076016 c1.4204 0.33121 2.8976 0.33359 4.3188 0.007578 c0.3648 -0.074412 0.72244 -0.17961 1.0692 -0.31442 c1.1472 -0.4116 2.0064 -1.378 2.2804 -2.5656 c0.025586 -0.10879 0.053204 -0.21758 0.075588 -0.3268 c0.25879 -1.1644 0.37438 -2.356 0.34398 -3.5484 c-0.004414 -0.14922 -0.019219 -0.29801 -0.044024 -0.4452 c-0.12879 -0.6956 -0.24719 -1.3932 -0.4016 -2.0836 c-0.1332 -0.6232 -0.4064 -1.208 -0.7992 -1.7096 c-0.8788 -1.1896 -2.246 -1.9204 -3.7232 -1.9896 c-0.4092 -0.02 -0.8196 -0.020781 -1.2292 -0.024375 c-0.6332 0.014805 -1.2664 -0.025195 -1.8928 -0.11961 c-0.2952 -0.039609 -0.5936 -0.047616 -0.8904 -0.024024 c-0.11441 0.028398 -0.2232 0.076016 -0.32199 0.14 c-0.017188 0.22199 -0.047968 0.4408 -0.04918 0.66 c-0.0048048 1.1184 0.0051952 2.2372 -0.0051952 3.3552 c0.025195 1.3792 -0.020391 2.7588 -0.13598 4.1332 c-0.049608 0.4452 -0.044804 0.8944 0.014414 1.3384 c0.075588 0.5568 0.081992 1.114 0.12078 1.6716 c0.020391 0.29442 0.041992 0.59204 0.061212 0.8344 z M85.1026 12.952000000000002 c-0.16121 0.0064064 -0.30746 0.095196 -0.38785 0.2348 c-0.075588 0.2 -0.1016 0.4152 -0.076796 0.6272 c0.023984 1.1556 -0.016016 2.3112 -0.12043 3.462 c-0.013594 0.18602 -0.016406 0.37281 -0.0087892 0.5592 c0 1.3792 -0.0032031 2.7588 0 4.138 c0 0.33641 0.028789 0.6696 0.04918 1.004 c0.022812 0.37121 0.054024 0.742 0.076016 1.1132 c0.017617 0.2968 0.026406 0.5936 0.038008 0.86 l0.17398 0.19558 c0.068788 0.027617 0.14117 0.046408 0.21516 0.056408 c1.118 0.0051952 2.2372 0.038398 3.3536 0 c0.9724 -0.0584 1.9152 -0.3548 2.746 -0.8632 c0.6184 -0.35398 1.1388 -0.85596 1.5144 -1.4608 c0.8272 -1.3432 1.2012 -2.9168 1.0668 -4.4884 c-0.029609 -0.3716 -0.081212 -0.7412 -0.1552 -1.1064 c-0.10039 -0.7052 -0.3716 -1.3748 -0.7908 -1.9508 c-0.7452 -0.996 -1.8196 -1.6948 -3.0324 -1.9716 c-0.6864 -0.1752 -1.39 -0.2768 -2.098 -0.30359 c-0.4448 -0.0023828 -0.8892 -0.083984 -1.3348 -0.10559 c-0.4088 -0.019219 -0.8192 -0.015234 -1.228 -0.000039062 z M119.02199999999999 15.463999999999999 c0.0048048 -0.5708 -0.072228 -1.1394 -0.22902 -1.6886 c-0.24719 -0.2752 -0.6104 -0.4172 -0.9788 -0.3816 c-0.36199 0.0092188 -0.5268 -0.1968 -0.5332 -0.5668 c-0.0016016 -0.074412 0.0028125 -0.14883 0.012422 -0.22281 c0.028789 -0.22961 0.2048 -0.4132 0.4328 -0.4516 c0.073592 -0.010781 0.14758 -0.023594 0.22199 -0.027578 c0.6732 -0.036016 1.3404 -0.072032 2.0092 -0.15363 c0.4836 -0.047188 0.9708 -0.051172 1.4552 -0.012383 c0.7796 0.041992 1.5564 0.12277 2.2516 0.17996 c0.1648 0.076408 0.28 0.23082 0.3068 0.41044 c0.03 0.18442 0.042812 0.37121 0.038398 0.558 c-0.030781 0.9336 -0.011992 1.8684 0.055624 2.8 c0.019609 0.37199 0.0096092 0.7464 0.0035938 1.1196 c-0.023984 1.5312 -0.052772 3.0624 -0.077576 4.594 c-0.014805 0.8964 -0.037617 1.7928 -0.034805 2.6892 c0.0039844 1.3072 0.035195 2.6148 0.041992 3.922 c0.0051952 1.4192 0.014414 2.8392 -0.017969 4.258 c-0.015195 0.6696 -0.14359 1.3344 -0.11961 2.01 c-0.0035938 0.4852 0.024414 0.9704 0.084024 1.452 c0.048788 0.29238 0.026406 0.59596 0.049608 0.8936 c0.02 0.25801 0.05922 0.5144 0.087616 0.75044 l0.3216 0.25762 l1.06 -0.21039 c0.1984 0.3232 0.1984 0.3232 0.067188 0.9448 c-0.11961 0.19442 -0.3084 0.33641 -0.5284 0.39602 c-0.8092 0.28641 -1.632 0.5316 -2.4656 0.734 c-0.9464 0.22078 -1.9212 0.29316 -2.8896 0.21438 c-0.1116 -0.0092188 -0.22082 -0.036836 -0.32281 -0.082032 c-0.067616 -0.041212 -0.12961 -0.091212 -0.1832 -0.14922 c-0.13 -0.3852 -0.1848 -0.792 -0.1616 -1.198 c-0.024414 -0.408 0.01 -0.8196 0 -1.2288 c-0.0096092 -0.4024 -0.041992 -0.80476 -0.065196 -1.2096 c-0.08922 0.021602 -0.18 0.016016 -0.21602 0.057616 c-0.7288 0.8524 -1.5508 1.62 -2.4512 2.2888 c-0.7696 0.5968 -1.6504 1.034 -2.5912 1.2864 c-0.14719 0.023594 -0.2932 0.057188 -0.436 0.10039 c-1.4372 0.5836 -2.9444 0.5188 -4.4236 0.35558 c-1.6544 -0.19558 -3.1632 -1.04 -4.1952 -2.3476 c-0.6292 -0.7432 -1.1124 -1.5988 -1.424 -2.5216 c-0.15121 -0.4224 -0.24442 -0.8636 -0.2768 -1.3116 c-0.02 -0.37121 -0.096016 -0.7396 -0.12801 -1.1112 c-0.038789 -0.446 -0.068788 -0.8932 -0.08078 -1.3408 c-0.021602 -0.784 0.01 -1.5716 -0.046796 -2.3524 c-0.084804 -1.2276 -0.097188 -2.4584 -0.036797 -3.6872 c0.15359 -3.3976 0.034375 -6.7984 0.053164 -10.198 c0.013984 -0.4864 -0.077616 -0.9704 -0.26762 -1.4188 c-0.068788 -0.17719 -0.20957 -0.3168 -0.38676 -0.3852 c-0.31238 -0.10922 -0.6308 -0.19844 -0.95 -0.29445 c-0.1952 -0.25281 -0.21961 -0.598 -0.061992 -0.87564 c0.11961 -0.1316 0.29121 -0.2032 0.4684 -0.1952 c1.6044 -0.036016 3.2036 -0.23121 4.8112 -0.15801 c0.26039 0.004414 0.5204 0.025625 0.778 0.062812 c0.31359 0.044804 0.53916 0.32359 0.51796 0.63916 c-0.0032031 0.37199 -0.057616 0.74276 -0.081212 1.1148 c-0.1516 2.3892 -0.10199 4.7796 -0.021211 7.1696 c0.025195 0.7452 0.046796 1.4896 0.12121 2.2348 c0.055588 0.6704 0.043984 1.344 -0.033633 2.012 c-0.073984 0.6308 -0.089572 1.2668 -0.047188 1.9004 c0.10281 1.2308 0.097228 2.4628 0.10762 3.6948 c0.0051952 0.5976 0.0023828 1.1956 0.005586 1.7932 c0.019609 1.0152 0.33281 2.0028 0.9016 2.8436 c0.24199 0.37879 0.5668 0.69756 0.9496 0.93316 c1.0844 0.696 2.4192 0.8828 3.6532 0.51204 c0.25238 -0.0684 0.5004 -0.1532 0.7548 -0.21039 c1.316 -0.31801 2.506 -1.0236 3.4172 -2.0248 c0.33641 -0.35078 0.6444 -0.7256 0.96044 -1.0936 c0.528 -0.5928 0.806 -1.3668 0.77564 -2.16 c-0.020781 -0.7464 -0.011562 -1.494 -0.011562 -2.2412 c0 -2.092 0.008008 -4.184 0.0048048 -6.276 c-0.0032031 -1.8304 -0.019219 -3.6596 -0.024414 -5.4912 c0 -0.6352 0.0028125 -1.2704 0.019219 -1.9052 z M129.0775 38.206 c-0.30801 0.38121 -0.68336 0.42188 -1.219 0.11309 c-0.05 -0.2048 -0.081212 -0.4136 -0.093592 -0.62436 c-0.0023828 -0.6352 0.028828 -1.27 0.093632 -1.902 c0.084412 -0.6668 0.086016 -1.3416 0.004414 -2.0092 c-0.035586 -0.4092 -0.0416 -0.82044 -0.018398 -1.2304 c0.026016 -0.27238 0.25242 -0.4824 0.5264 -0.4872 c0.38 -0.069608 0.7628 0.1084 0.9552 0.4436 c0.13359 0.2248 0.2548 0.4568 0.36281 0.6948 c0.5968 1.2068 1.3036 2.356 2.1124 3.4324 c0.9628 1.354 2.3788 2.3176 3.9916 2.7168 c0.728 0.17879 1.4836 0.21238 2.2248 0.099572 c0.6736 -0.09 1.2996 -0.39641 1.7836 -0.8736 c0.94 -0.8704 1.58 -2.016 1.8296 -3.2724 c0.10879 -0.552 0.0916 -1.1216 -0.05 -1.666 c-0.11961 -0.6256 -0.3768 -1.2168 -0.7536 -1.7304 c-0.13641 -0.17641 -0.2916 -0.33801 -0.4628 -0.4812 c-1.4136 -1.1064 -2.97 -2.0172 -4.6268 -2.7084 c-1.2232 -0.4644 -2.392 -1.0612 -3.4852 -1.7804 c-1.13 -0.8044 -2.09 -1.8244 -2.824 -3.0012 c-0.4008 -0.6328 -0.6836 -1.3332 -0.83436 -2.0668 c-0.21641 -0.908 -0.34199 -1.8352 -0.3752 -2.768 c0.01 -0.8212 0.13 -1.6372 0.3568 -2.4268 c0.0816 -0.3268 0.21121 -0.6396 0.3848 -0.9284 c0.13641 -0.22281 0.25922 -0.4544 0.3932 -0.67884 c0.5904 -1.0032 1.4376 -1.8308 2.4544 -2.3976 c1.754 -0.9884 2.0408 -1.0008 3.9304 -1.048 c1.4244 -0.032812 2.8372 0.26078 4.1308 0.85756 c0.544 0.24602 1.082 0.50724 1.6152 0.77724 c0.31121 0.18039 0.66724 0.26879 1.0268 0.25438 l0.6948 -0.4168 c0.1832 -0.073204 0.39281 -0.027617 0.5296 0.11476 c0.095196 0.1132 0.16 0.24801 0.18922 0.39242 c0.027617 0.22238 0.037617 0.44636 0.029219 0.67036 c0 1.0836 -0.0012109 2.1672 -0.0032031 3.2512 c0.0039844 0.18641 -0.0076172 0.37242 -0.034805 0.55684 c-0.033203 0.10078 -0.08082 0.19637 -0.14242 0.28277 c-0.3684 0.16602 -0.794 0.14641 -1.1456 -0.052812 c-0.13559 -0.29879 -0.29039 -0.63596 -0.4416 -0.97436 c-0.7096 -1.5352 -1.8176 -2.852 -3.2096 -3.8128 c-0.24602 -0.16961 -0.5024 -0.3232 -0.768 -0.4604 c-0.9356 -0.4816 -1.998 -0.6608 -3.0396 -0.5116 c-0.674 0.086016 -1.2924 0.4168 -1.7384 0.9296 c-0.23199 0.24398 -0.43276 0.5156 -0.59796 0.8092 c-0.5276 0.9076 -0.8516 1.9188 -0.9496 2.964 c-0.10281 1.0184 0.20359 2.0364 0.8512 2.8292 c0.7808 1.0104 1.7936 1.8184 2.952 2.3552 c1.1628 0.5108 2.3308 1.0096 3.4912 1.5236 c2.1968 0.8968 4.058 2.4588 5.322 4.4668 c0.4972 0.7524 0.7852 1.6236 0.8336 2.524 c0.0071876 0.2984 0.021172 0.5972 0.033555 0.8956 c0.035586 1.8048 -0.44044 3.5828 -1.3728 5.1284 c-0.408 0.6744 -0.95724 1.2528 -1.6096 1.6956 c-1.3004 0.964 -2.8668 1.5028 -4.4852 1.5428 c-0.4852 0.014805 -0.9716 0.0092188 -1.4572 0.014024 c-1.7688 -0.019219 -3.4884 -0.58204 -4.9268 -1.6112 c-0.3732 -0.24762 -0.7444 -0.49724 -1.1192 -0.74204 c-0.19199 -0.11922 -0.4152 -0.17801 -0.6412 -0.1684 c-0.18922 -0.0083984 -0.37203 0.07082 -0.49524 0.2148 c-0.070392 0.083984 -0.11199 0.19558 -0.18238 0.28117 z M171.75199999999998 12.835999999999999 c0.014805 0.2184 -0.062616 0.43276 -0.2134 0.59116 c-0.3432 0.10281 -0.6668 0.18883 -0.9816 0.29805 c-0.29281 0.10078 -0.49884 0.36476 -0.52564 0.67316 c-0.041992 0.3332 -0.064804 0.6692 -0.067616 1.0052 c0.0096092 0.6348 -0.023984 1.27 -0.10078 1.9004 c-0.058008 0.37 -0.060392 0.7464 -0.0071876 1.1172 c0.10879 1.0408 0.15199 2.0872 0.12961 3.1336 c0.032812 1.6824 0.013594 3.3648 0.041992 5.0448 c0.016016 1.0096 0.012812 2.016 0.10883 3.0228 c0.04 0.5596 0.032812 1.1212 -0.021602 1.6792 c-0.070392 0.8184 -0.059608 1.6416 0.032774 2.4576 c0.092812 1.0804 0.1116 2.1656 0.056796 3.248 c-0.004414 0.3368 -0.011211 0.6732 0.0043752 1.0076 c0.0064064 0.21 0.10879 0.4056 0.27801 0.5308 l1.064 0.3084 c0.20719 0.20238 0.26398 0.514 0.14199 0.7768 c-0.045588 0.1 -0.12199 0.1832 -0.2184 0.23641 c-0.099608 0.0516 -0.20961 0.08 -0.3216 0.083984 c-0.29801 0.021211 -0.59724 0.037617 -0.89564 0.036836 c-1.3828 -0.0039844 -2.7656 -0.017969 -4.1488 -0.021172 c-0.56 0 -1.1208 0.02 -1.6824 0.02 c-0.22359 0.0023828 -0.4472 -0.014414 -0.6684 -0.05 c-0.18961 -0.034414 -0.34961 -0.16043 -0.4284 -0.33644 c-0.058788 -0.2984 0.02082 -0.6076 0.21562 -0.8412 c0.33398 -0.05078 0.66636 -0.088788 0.99276 -0.15641 c0.22762 -0.043592 0.40884 -0.21641 0.4628 -0.442 c0.08922 -0.28558 0.14562 -0.58 0.16801 -0.878 c0.038008 -0.7088 0.03 -1.4192 -0.023594 -2.1272 c-0.086016 -0.9668 -0.11961 -1.9376 -0.10082 -2.9084 c0.0087892 -1.8312 0.013203 -3.662 0.013203 -5.4932 c-0.0087892 -0.14 -0.027188 -0.27879 -0.055196 -0.41596 c-0.083984 -0.062384 -0.13918 -0.13 -0.20476 -0.14359 c-0.14441 -0.039219 -0.29442 -0.053632 -0.44364 -0.042032 c-0.932 0.14441 -1.8608 -0.014805 -2.7908 -0.02082 c-2.2044 -0.015586 -4.4092 -0.053204 -6.614 -0.077188 c-0.27 -0.045196 -0.5476 0.0048048 -0.7844 0.1416 c-0.0516 0.083984 -0.087188 0.17637 -0.10559 0.27316 c-0.017188 0.5224 -0.02 1.0456 -0.021211 1.5688 c-0.004414 1.8684 -0.012031 3.7372 -0.006836 5.6056 c0.0035938 1.3076 0.017578 2.6152 0.042384 3.9232 c0.013203 0.676 0.16801 0.85 0.8176 1.0016 c0.18039 0.041992 0.3652 0.065196 0.484 0.085976 c0.15281 0.084412 0.25359 0.23883 0.27039 0.4124 c0.027617 0.19602 0.02043 0.39524 -0.021172 0.58884 c-0.081212 0.15879 -0.23562 0.26801 -0.4124 0.2916 c-0.22199 0.027617 -0.4456 0.0416 -0.66956 0.041992 c-1.084 0.0039844 -2.168 0 -3.2516 0.0023828 c-0.86 0.0023828 -1.7192 0.016797 -2.5788 0.016406 c-0.3368 0 -0.6732 -0.017617 -1.006 -0.042032 c-0.2316 -0.034805 -0.39801 -0.2416 -0.38281 -0.4752 c-0.022812 -0.18961 0.034375 -0.38 0.15836 -0.5252 c0.3852 -0.28442 0.9504 -0.21402 1.2972 -0.64164 c0.21879 -0.4272 0.32199 -0.90436 0.29918 -1.384 c-0.0064064 -1.0464 -0.0064064 -2.0928 0 -3.1396 c0.005586 -1.3824 0.023984 -2.7656 0.023594 -4.148 s-0.018008 -2.7656 -0.024805 -4.1484 c-0.016016 -3.2884 -0.068828 -6.5772 0.006758 -9.8656 c0.0067968 -0.29922 0.005586 -0.59844 -0.0036328 -0.89684 c0.0035938 -0.36641 -0.11082 -0.72404 -0.32562 -1.0204 c-0.35558 -0.3816 -0.854 -0.3032 -1.214 -0.4444 c-0.17558 -0.1768 -0.23277 -0.4388 -0.14719 -0.67276 c0.04 -0.14801 0.15359 -0.26442 0.30039 -0.3084 c0.1052 -0.036797 0.21442 -0.06 0.32562 -0.06922 c0.4104 -0.02 0.8232 -0.055588 1.2324 -0.035586 c1.346 0.065588 2.692 -0.0072264 4.0352 -0.027226 c0.6224 -0.019609 1.2452 0.00039062 1.8652 0.059608 c0.31961 0.16602 0.48404 0.5296 0.39684 0.8792 c-0.26879 0.4784 -0.8032 0.33398 -1.16 0.5072 c-0.16558 0.11078 -0.28438 0.27957 -0.33316 0.47316 c-0.12602 0.3516 -0.1916 0.7216 -0.19398 1.0948 c-0.0484 1.5684 -0.0019922 3.138 0.13879 4.7008 c0.051992 0.558 0.069608 1.1188 0.053204 1.6788 c0.010781 1.0464 0.010781 2.0924 0.02 3.1392 c0.0092188 0.1152 0.027226 0.23 0.053244 0.34281 c0.0884 0.059608 0.1868 0.1032 0.29039 0.1284 c0.33641 0.017188 0.6728 0.0043752 1.0092 0.0095704 c1.0464 0.014414 2.1 -0.042384 3.1368 0.064024 c1.9768 0.20199 3.9584 0.046408 5.9356 0.13359 c0.10559 -0.0032031 0.21078 -0.015586 0.31438 -0.037188 c0.13281 -0.084804 0.21242 -0.23242 0.21004 -0.39004 c0.004414 -0.1116 0.014414 -0.22398 0.0096092 -0.33637 c-0.084412 -1.906 0.036367 -3.8112 0.036758 -5.7168 c0.0060156 -0.37281 0.031602 -0.7452 0.075588 -1.1152 c0.09078 -1.0424 0.10957 -2.09 0.056368 -3.1352 c-0.026406 -0.29762 -0.091212 -0.59084 -0.19242 -0.8716 c-0.067616 -0.22199 -0.2632 -0.38039 -0.4944 -0.4 c-0.29442 -0.038789 -0.58884 -0.052772 -0.85564 -0.075976 c-0.2248 -0.25238 -0.24242 -0.6276 -0.042032 -0.89996 c0.15281 -0.074804 0.3148 -0.13 0.4816 -0.16398 c0.4832 -0.041992 0.9676 -0.070392 1.4548 -0.073592 c1.5696 -0.0087892 3.1392 -0.0048048 4.7112 -0.0028125 c0.3716 0 0.744 0.011992 1.0316 0.017188 c0.28801 0.088008 0.47724 0.36281 0.45644 0.6628 z M211.85199999999998 16.26 c0.021992 0.14 0.022148 0.28234 -0.00023438 0.42236 c-0.1968 0.18922 -0.4776 0.2616 -0.74116 0.1916 c-0.18762 -0.023984 -0.35961 -0.11719 -0.482 -0.26117 c-0.14641 -0.1684 -0.27922 -0.35 -0.42404 -0.52 c-0.34 -0.3968 -0.6768 -0.7964 -1.0272 -1.184 c-0.6348 -0.706 -1.5304 -1.122 -2.4796 -1.1516 c-1.9016 -0.12559 -3.8096 -0.12559 -5.7112 0 c-0.033594 0.0048048 -0.066796 0.012812 -0.09918 0.023594 c-0.13641 0.074412 -0.21961 0.21883 -0.2168 0.37402 c-0.005586 0.6728 -0.0048048 1.346 -0.0092188 2.0188 c-0.008008 1.234 -0.016797 2.4664 -0.026797 3.698 c-0.0028125 0.4112 -0.0067968 0.822 -0.0071876 1.2328 l0 10.312 c0 1.9056 -0.01 3.8112 -0.0060156 5.7168 c0.0023828 0.3352 0.02957 0.67 0.081564 1.0012 c0.041212 0.1884 0.18359 0.3384 0.36961 0.38918 c0.1432 0.039219 0.29 0.065236 0.438 0.078436 c0.1816 0.026406 0.3632 0.048788 0.5212 0.069572 c0.26238 0.2584 0.31879 0.6604 0.13758 0.9804 c-0.962 0.28199 -1.9664 0.39 -2.966 0.31922 c-1.2332 -0.005586 -2.466 0.0048048 -3.6988 0 c-0.4104 0 -0.8208 -0.022383 -1.23 -0.053164 c-0.1016 -0.026406 -0.19762 -0.07082 -0.28363 -0.13082 c-0.14801 -0.26719 -0.1432 -0.59276 0.012812 -0.85516 c0.0616 -0.050392 0.12879 -0.092772 0.20078 -0.12598 c0.25238 -0.076016 0.50476 -0.14082 0.75716 -0.20801 c0.29641 -0.077616 0.526 -0.31242 0.5968 -0.61084 c0.042812 -0.14238 0.074804 -0.2884 0.096408 -0.4356 c0.013203 -0.1116 0.018008 -0.22398 0.014414 -0.33637 c0.0064064 -2.6904 0.012812 -5.3804 0.018828 -8.0704 c0.0032031 -1.5692 0.0051952 -3.138 0.0071876 -4.7072 c0 -0.14961 0.0039844 -0.29922 0.0039844 -0.44844 l0 -9.1908 c0 -0.29442 -0.023203 -0.5924 -0.034414 -0.8576 c-0.08922 -0.077188 -0.13961 -0.15797 -0.20121 -0.16836 c-0.22 -0.036016 -0.4428 -0.055624 -0.666 -0.058008 c-1.3828 0 -2.7652 0.018398 -4.148 0.011211 c-0.6356 0.012383 -1.2668 0.1068 -1.8784 0.28121 c-0.6188 0.16238 -1.1824 0.48956 -1.6308 0.94636 c-0.528 0.5268 -1.0488 1.062 -1.6348 1.6564 l-0.7724 0.17762 l-0.30199 -0.15961 c-0.018398 -0.087188 -0.061212 -0.16558 -0.041992 -0.22598 c0.084412 -0.28558 0.1852 -0.5672 0.2848 -0.8484 c0.33922 -0.8704 0.73244 -1.7188 1.1776 -2.54 c0.26238 -0.51 0.7736 -0.8444 1.346 -0.88044 c0.11199 -0.012383 0.22438 -0.017578 0.33676 -0.015976 c1.2324 -0.0051952 2.4648 -0.0091796 3.698 -0.011992 c1.532 -0.0060156 3.0632 -0.02 4.5952 -0.019219 c2.3912 0 4.7824 0.013594 7.1736 0.01918 c1.3076 0.0028125 2.6156 0.01082 3.9232 0.000039062 c0.4092 -0.0039844 0.8176 -0.064764 1.2264 -0.10035 c0.18558 -0.016406 0.37039 -0.038008 0.5568 -0.04922 c0.6924 -0.082384 1.358 0.29442 1.6436 0.93 c0.5792 1.088 1.0804 2.216 1.5008 3.3748 z M227.68699999999998 22.867 c0.10559 -0.3284 0.17703 -0.65476 0.27062 -1.0008 c0.22719 -0.19442 0.54 -0.2552 0.8236 -0.16039 c0.22719 0.044804 0.402 0.22558 0.4396 0.454 c0.030781 0.2216 0.046368 0.4448 0.046368 0.6688 c0.008008 0.784 0.013594 1.5684 0.0096092 2.3524 c-0.0060156 1.234 -0.017226 2.4664 -0.034024 3.698 c-0.008008 0.1484 -0.027617 0.29602 -0.058828 0.4412 c-0.046408 0.18641 -0.21039 0.32 -0.402 0.32719 c-0.27922 0.037617 -0.5596 -0.0584 -0.75724 -0.2584 c-0.0616 -0.24558 -0.1152 -0.53916 -0.21039 -0.8192 c-0.1 -0.28121 -0.2184 -0.556 -0.35398 -0.8216 c-0.11602 -0.23359 -0.24602 -0.4596 -0.38922 -0.67724 c-0.26558 -0.414 -0.6888 -0.7016 -1.1716 -0.796 c-0.3252 -0.083592 -0.6568 -0.14 -0.9912 -0.1684 c-1.4184 -0.0716 -2.838 -0.06922 -4.2576 -0.04922 c-0.19281 -0.022812 -0.38442 0.05 -0.51404 0.19442 c-0.081212 0.2032 -0.1084 0.4244 -0.0784 0.6412 c-0.0019922 1.8304 -0.0019922 3.6608 0 5.4908 c0 1.6808 0.0016016 3.3616 0.0048048 5.0428 c0 0.26078 0.023203 0.5224 0.045196 0.7824 c0.010391 0.1116 0.033984 0.2216 0.06918 0.32801 c0.051992 0.18199 0.16961 0.3384 0.33039 0.4384 c0.3132 0.2068 0.6764 0.3248 1.0512 0.3416 c0.22442 0 0.4484 0.0067968 0.6732 0.004414 c1.7184 -0.019219 3.4364 -0.042032 5.1548 -0.057616 c0.5968 -0.028008 1.19 -0.10879 1.7728 -0.24117 c0.4804 -0.098008 0.9188 -0.34359 1.2528 -0.7024 c0.32121 -0.31359 0.5932 -0.6736 0.8072 -1.0684 c0.1684 -0.3316 0.3416 -0.6628 0.516 -1.0008 c0.33442 -0.20078 0.7592 -0.17117 1.0624 0.074844 c0.008008 0.11039 0.008008 0.2216 0 0.33199 c-0.1332 0.8856 -0.27199 1.77 -0.408 2.6548 c-0.012383 0.24922 -0.13797 0.4792 -0.34117 0.6244 c-0.19602 0.021211 -0.4528 0.06 -0.7108 0.073204 c-0.7076 0.037188 -1.414 0.0584 -2.1216 0.13359 c-0.7812 0.079608 -1.5684 0.073592 -2.3484 -0.018008 c-0.4068 -0.045588 -0.818 -0.067576 -1.2276 -0.073984 c-2.2036 -0.035195 -4.4072 -0.07 -6.6112 -0.08922 c-1.718 -0.014414 -3.4368 -0.004414 -5.1552 -0.01043 c-0.29801 0 -0.59564 -0.022812 -0.89324 -0.042032 c-0.1484 -0.032812 -0.26359 -0.15 -0.29438 -0.29879 c-0.056408 -0.2532 -0.031992 -0.518 0.070392 -0.7568 c0.10121 -0.1152 0.24402 -0.18442 0.39684 -0.19281 c0.29762 -0.024414 0.5996 -0.026406 0.892 -0.07922 c0.34 -0.054804 0.6288 -0.27801 0.768 -0.5928 c0.16801 -0.3352 0.26281 -0.7024 0.2784 -1.0768 c0.026016 -1.5688 0.062032 -3.1372 0.078436 -4.7056 c0.016406 -1.606 -0.032383 -3.2144 0.035625 -4.8176 c0.047616 -1.12 0.084024 -2.2384 0.076016 -3.358 c-0.0019922 -0.4092 -0.05918 -0.8176 -0.078788 -1.2268 c-0.04 -0.8204 -0.097188 -1.6404 -0.10117 -2.4616 c-0.0071876 -1.5684 0.02082 -3.1372 0.027617 -4.7064 c0.0076172 -0.37281 -0.0063672 -0.746 -0.042384 -1.1172 c-0.030781 -0.5064 -0.41276 -0.9212 -0.91476 -0.9936 c-0.21801 -0.05 -0.4388 -0.088788 -0.66 -0.12641 c-0.22078 -0.037188 -0.4376 -0.070392 -0.63956 -0.10238 c-0.20801 -0.28641 -0.24602 -0.66244 -0.099608 -0.9844 c0.086796 -0.057616 0.18199 -0.1016 0.28199 -0.13039 c0.25922 -0.033984 0.52 -0.051992 0.7812 -0.053204 c1.0836 -0.0032031 2.1672 0.0051952 3.2504 0.0048048 c1.8676 0 3.7352 -0.0016016 5.6028 -0.0051952 c0.074804 0 0.14961 -0.0028125 0.22442 0 c2.5396 0.011211 5.0796 0.023203 7.6192 0.036016 c0.14879 -0.0028125 0.29758 0.014375 0.44156 0.05078 c0.1068 0.048008 0.20602 0.11121 0.29442 0.18723 c0.039609 0.17558 0.090392 0.35438 0.11961 0.53676 c0.15801 0.9944 0.31242 1.9896 0.4628 2.9864 c0.00078124 0.073984 -0.008008 0.14797 -0.026406 0.21996 c-0.035586 0.14719 -0.1448 0.26558 -0.28879 0.31277 c-0.26719 0.086408 -0.5588 0.052812 -0.7992 -0.092772 c-0.21762 -0.4628 -0.4324 -0.98 -0.696 -1.4692 c-0.37398 -0.742 -1.0028 -1.3244 -1.7708 -1.6404 c-0.099608 -0.0516 -0.2052 -0.089608 -0.3148 -0.11402 c-0.6224 -0.12281 -1.252 -0.20883 -1.8848 -0.25723 c-1.6824 0 -3.362 0 -5.0428 0.0039844 c-0.25719 -0.025586 -0.5168 0.011211 -0.7568 0.10801 c-0.1252 0.091992 -0.19238 0.24277 -0.17719 0.39719 c-0.013594 1.4564 -0.033203 2.9132 -0.034805 4.37 c0 1.98 0.010391 3.9592 0.014375 5.9392 c-0.020781 0.4456 0.0032031 0.892 0.0716 1.3328 c0.098788 0.062384 0.20719 0.10719 0.32117 0.13199 c1.346 -0.004414 2.6892 -0.0060156 4.0332 -0.039609 c0.4844 -0.027617 0.9668 -0.083632 1.4444 -0.16844 c0.57 -0.065196 1.0644 -0.4236 1.304 -0.9448 c0.17039 -0.37281 0.31719 -0.7564 0.4384 -1.1484 z M257.959 33.3332 c0.096016 -0.15602 0.22606 -0.29192 0.36484 -0.46072 c0.34281 -0.12641 0.72204 -0.1084 1.0516 0.049608 c0.1432 0.13398 0.21558 0.32719 0.19637 0.52276 c-0.13641 1 -0.1252 2.0148 0.032812 3.012 c0.083204 0.6688 0.013594 1.348 -0.20359 1.986 c-0.17961 0.19961 -0.462 0.27121 -0.7152 0.1816 c-0.17 -0.074804 -0.31558 -0.19558 -0.4204 -0.34879 c-0.11762 -0.14039 -0.25242 -0.2668 -0.39121 -0.414 c-0.15078 0.022383 -0.3 0.055976 -0.446 0.10039 c-0.6272 0.24078 -1.2508 0.4904 -1.8744 0.7404 c-0.5888 0.23641 -1.1768 0.4748 -1.764 0.7152 c-0.7416 0.25078 -1.5008 0.4476 -2.2712 0.5888 c-1.3608 0.33641 -2.7452 0.24762 -4.126 0.2684 c-1.196 -0.017188 -2.3836 -0.20641 -3.526 -0.5612 c-0.5404 -0.14719 -1.0716 -0.32797 -1.59 -0.54036 c-1.8852 -0.7492 -3.5296 -2.0004 -4.7548 -3.6176 c-0.552 -0.7532 -1.0644 -1.5348 -1.5348 -2.3416 c-0.14801 -0.25922 -0.2684 -0.5332 -0.35918 -0.8176 c-0.4124 -1.1616 -0.7188 -2.3584 -0.9164 -3.5752 c-0.098788 -0.664 -0.2332 -1.3228 -0.33 -1.9868 c-0.053204 -0.29359 -0.064804 -0.5932 -0.035195 -0.89 c0.1284 -0.9256 0.1548 -1.8604 0.35961 -2.7764 c0.11238 -0.5484 0.26039 -1.0888 0.4432 -1.618 c0.5296 -1.4388 1.2192 -2.8136 2.0568 -4.098 c0.30281 -0.4724 0.6564 -0.9104 1.0544 -1.306 c0.1332 -0.13121 0.2716 -0.2584 0.3952 -0.39762 c1.3304 -1.4964 3.0524 -2.384 4.8792 -3.0888 c1.0064 -0.4044 2.0608 -0.6776 3.1368 -0.8132 c0.25922 -0.03 0.518 -0.059608 0.7784 -0.076016 c1.382 -0.056016 2.766 0.015976 4.1344 0.21438 c0.5168 0.062812 1.0252 0.19961 1.5352 0.31039 c1.196 0.31 2.3312 0.818 3.3596 1.5024 c0.2868 0.17359 0.5784 0.34121 0.8752 0.4968 c0.2216 0.1116 0.4804 0.12238 0.7104 0.03 l0.444 -0.5276 c0.30719 -0.10879 0.6464 -0.0816 0.9328 0.074804 c0.06922 0.1168 0.12043 0.2432 0.15164 0.3752 c0.036797 0.25879 0.038398 0.52116 0.0039844 0.7804 c-0.11559 0.814 -0.11719 1.64 -0.0051952 2.4548 c0.029219 0.5212 0.022812 1.044 -0.018789 1.5644 c-0.016797 0.072384 -0.046408 0.14117 -0.087188 0.20316 c-0.1984 0.17558 -0.4596 0.26238 -0.7236 0.24078 c-0.17238 -0.022812 -0.34078 -0.07082 -0.49916 -0.14281 c-0.6944 -1.4664 -1.6172 -2.8136 -2.734 -3.9912 c-0.9392 -0.97 -2.0788 -1.7244 -3.3388 -2.2104 c-0.7676 -0.2968 -1.5792 -0.466 -2.4016 -0.50044 c-0.522 -0.024414 -1.0464 -0.016406 -1.5692 0 c-0.9392 0.023594 -1.8552 0.2952 -2.6556 0.7872 c-0.4772 0.29199 -0.93956 0.6116 -1.3908 0.9436 c-0.6048 0.4448 -1.1124 1.0084 -1.4916 1.6564 c-0.5868 0.998 -1.214 1.972 -1.7452 3.0032 c-0.4716 0.8952 -0.7444 1.8816 -0.7992 2.8916 c-0.0064064 0.22442 -0.024805 0.448 -0.054412 0.67 c-0.24121 1.6284 -0.28602 3.2796 -0.13402 4.9184 c0.11922 1.4892 0.35844 2.966 0.71524 4.4164 c0.3948 1.6028 1.1284 3.102 2.1516 4.3968 c0.16199 0.2052 0.31438 0.4184 0.47476 0.6252 c0.6968 0.8336 1.5392 1.534 2.486 2.0668 c0.5192 0.30602 1.108 0.4728 1.7104 0.4844 c0.6724 0.039219 1.3464 0.039219 2.0188 0 c1.0088 -0.055196 1.9936 -0.33 2.8852 -0.8056 c1.2652 -0.7248 2.4464 -1.5868 3.522 -2.5708 c0.4084 -0.3848 0.762 -0.8236 1.0516 -1.304 c0.3248 -0.502 0.658 -0.998 0.9948 -1.492 z M286.077 12.835999999999999 c0.014805 0.2184 -0.062616 0.43276 -0.2134 0.59116 c-0.3432 0.10281 -0.6668 0.18883 -0.9816 0.29805 c-0.29281 0.10078 -0.49884 0.36476 -0.52564 0.67316 c-0.041992 0.3332 -0.064804 0.6692 -0.067616 1.0052 c0.0096092 0.6348 -0.023984 1.27 -0.10078 1.9004 c-0.058008 0.37 -0.060392 0.7464 -0.0071876 1.1172 c0.10879 1.0408 0.15199 2.0872 0.12961 3.1336 c0.032812 1.6824 0.013594 3.3648 0.041992 5.0448 c0.016016 1.0096 0.012812 2.016 0.10883 3.0228 c0.04 0.5596 0.032812 1.1212 -0.021602 1.6792 c-0.070392 0.8184 -0.059608 1.6416 0.032774 2.4576 c0.092812 1.0804 0.1116 2.1656 0.056796 3.248 c-0.004414 0.3368 -0.011211 0.6732 0.0043752 1.0076 c0.0064064 0.21 0.10879 0.4056 0.27801 0.5308 l1.064 0.3084 c0.20719 0.20238 0.26398 0.514 0.14199 0.7768 c-0.045588 0.1 -0.12199 0.1832 -0.2184 0.23641 c-0.099608 0.0516 -0.20961 0.08 -0.3216 0.083984 c-0.29801 0.021211 -0.59724 0.037617 -0.89564 0.036836 c-1.3828 -0.0039844 -2.7656 -0.017969 -4.1488 -0.021172 c-0.56 0 -1.1208 0.02 -1.6824 0.02 c-0.22359 0.0023828 -0.4472 -0.014414 -0.6684 -0.05 c-0.18961 -0.034414 -0.34961 -0.16043 -0.4284 -0.33644 c-0.058788 -0.2984 0.02082 -0.6076 0.21562 -0.8412 c0.33398 -0.05078 0.66636 -0.088788 0.99276 -0.15641 c0.22762 -0.043592 0.40884 -0.21641 0.4628 -0.442 c0.08922 -0.28558 0.14562 -0.58 0.16801 -0.878 c0.038008 -0.7088 0.03 -1.4192 -0.023594 -2.1272 c-0.086016 -0.9668 -0.11961 -1.9376 -0.10082 -2.9084 c0.0087892 -1.8312 0.013203 -3.662 0.013203 -5.4932 c-0.0087892 -0.14 -0.027188 -0.27879 -0.055196 -0.41596 c-0.083984 -0.062384 -0.13918 -0.13 -0.20476 -0.14359 c-0.14441 -0.039219 -0.29442 -0.053632 -0.44364 -0.042032 c-0.932 0.14441 -1.8608 -0.014805 -2.7908 -0.02082 c-2.2044 -0.015586 -4.4092 -0.053204 -6.614 -0.077188 c-0.27 -0.045196 -0.5476 0.0048048 -0.7844 0.1416 c-0.0516 0.083984 -0.087188 0.17637 -0.10559 0.27316 c-0.017188 0.5224 -0.02 1.0456 -0.021211 1.5688 c-0.004414 1.8684 -0.012031 3.7372 -0.006836 5.6056 c0.0035938 1.3076 0.017578 2.6152 0.042384 3.9232 c0.013203 0.676 0.16801 0.85 0.8176 1.0016 c0.18039 0.041992 0.3652 0.065196 0.484 0.085976 c0.15281 0.084412 0.25359 0.23883 0.27039 0.4124 c0.027617 0.19602 0.02043 0.39524 -0.021172 0.58884 c-0.081212 0.15879 -0.23562 0.26801 -0.4124 0.2916 c-0.22199 0.027617 -0.4456 0.0416 -0.66956 0.041992 c-1.084 0.0039844 -2.168 0 -3.2516 0.0023828 c-0.86 0.0023828 -1.7192 0.016797 -2.5788 0.016406 c-0.3368 0 -0.6732 -0.017617 -1.006 -0.042032 c-0.2316 -0.034805 -0.39801 -0.2416 -0.38281 -0.4752 c-0.022812 -0.18961 0.034375 -0.38 0.15836 -0.5252 c0.3852 -0.28442 0.9504 -0.21402 1.2972 -0.64164 c0.21879 -0.4272 0.32199 -0.90436 0.29918 -1.384 c-0.0064064 -1.0464 -0.0064064 -2.0928 0 -3.1396 c0.005586 -1.3824 0.023984 -2.7656 0.023594 -4.148 s-0.018008 -2.7656 -0.024805 -4.1484 c-0.016016 -3.2884 -0.068828 -6.5772 0.006758 -9.8656 c0.0067968 -0.29922 0.005586 -0.59844 -0.0036328 -0.89684 c0.0035938 -0.36641 -0.11082 -0.72404 -0.32562 -1.0204 c-0.35558 -0.3816 -0.854 -0.3032 -1.214 -0.4444 c-0.17558 -0.1768 -0.23277 -0.4388 -0.14719 -0.67276 c0.04 -0.14801 0.15359 -0.26442 0.30039 -0.3084 c0.1052 -0.036797 0.21442 -0.06 0.32562 -0.06922 c0.4104 -0.02 0.8232 -0.055588 1.2324 -0.035586 c1.346 0.065588 2.692 -0.0072264 4.0352 -0.027226 c0.6224 -0.019609 1.2452 0.00039062 1.8652 0.059608 c0.31961 0.16602 0.48404 0.5296 0.39684 0.8792 c-0.26879 0.4784 -0.8032 0.33398 -1.16 0.5072 c-0.16558 0.11078 -0.28438 0.27957 -0.33316 0.47316 c-0.12602 0.3516 -0.1916 0.7216 -0.19398 1.0948 c-0.0484 1.5684 -0.0019922 3.138 0.13879 4.7008 c0.051992 0.558 0.069608 1.1188 0.053204 1.6788 c0.010781 1.0464 0.010781 2.0924 0.02 3.1392 c0.0092188 0.1152 0.027226 0.23 0.053244 0.34281 c0.0884 0.059608 0.1868 0.1032 0.29039 0.1284 c0.33641 0.017188 0.6728 0.0043752 1.0092 0.0095704 c1.0464 0.014414 2.1 -0.042384 3.1368 0.064024 c1.9768 0.20199 3.9584 0.046408 5.9356 0.13359 c0.10559 -0.0032031 0.21078 -0.015586 0.31438 -0.037188 c0.13281 -0.084804 0.21242 -0.23242 0.21004 -0.39004 c0.004414 -0.1116 0.014414 -0.22398 0.0096092 -0.33637 c-0.084412 -1.906 0.036367 -3.8112 0.036758 -5.7168 c0.0060156 -0.37281 0.031602 -0.7452 0.075588 -1.1152 c0.09078 -1.0424 0.10957 -2.09 0.056368 -3.1352 c-0.026406 -0.29762 -0.091212 -0.59084 -0.19242 -0.8716 c-0.067616 -0.22199 -0.2632 -0.38039 -0.4944 -0.4 c-0.29442 -0.038789 -0.58884 -0.052772 -0.85564 -0.075976 c-0.2248 -0.25238 -0.24242 -0.6276 -0.042032 -0.89996 c0.15281 -0.074804 0.3148 -0.13 0.4816 -0.16398 c0.4832 -0.041992 0.9676 -0.070392 1.4548 -0.073592 c1.5696 -0.0087892 3.1392 -0.0048048 4.7112 -0.0028125 c0.3716 0 0.744 0.011992 1.0316 0.017188 c0.28801 0.088008 0.47724 0.36281 0.45644 0.6628 z M291.67719999999997 20.271 c-0.013984 -1.1892 -0.1168 -2.3804 -0.18442 -3.6388 c-0.3068 -0.406 -0.5576 -0.7792 -0.8508 -1.116 c-0.39238 -0.4516 -0.762 -0.9188 -1.1228 -1.3956 c-0.15 -0.17602 -0.31398 -0.33922 -0.4908 -0.48844 c-0.4764 -0.2216 -0.996 -0.3352 -1.5212 -0.33281 c-0.2216 -0.13359 -0.3416 -0.3868 -0.30442 -0.6428 c-0.022383 -0.19121 0.070428 -0.37723 0.23684 -0.4744 c0.9404 -0.11078 3.3012 -0.24719 4.0128 -0.23 c0.14961 -0.0060156 0.29922 0.0016016 0.44724 0.021992 c0.5544 0.083984 1.1148 0.11957 1.6748 0.10637 c0.1484 0.004414 0.29442 0.034414 0.4392 0.052424 c0.38281 0.2416 0.706 0.566 0.9468 0.9492 c0.7132 0.9596 1.41 1.9304 2.1332 2.882 c0.8128 1.0704 1.652 2.1216 2.472 3.1868 c0.9332 1.2136 1.8724 2.4228 2.7816 3.6544 c0.7096 0.9612 1.3832 1.9496 2.0612 2.9324 c0.9992 1.4456 2.1148 2.802 3.21 4.174 c0.32641 0.4084 0.6588 0.8116 0.9984 1.2092 c0.08922 0.076408 0.18801 0.14082 0.29442 0.19121 c0.047188 -0.10359 0.08078 -0.2132 0.10039 -0.32558 c0.010781 -0.6728 0.013164 -1.3456 0.012774 -2.0188 c0 -2.802 -0.0028125 -5.604 -0.0076172 -8.406 c-0.0048048 -1.8304 -0.018789 -3.6592 -0.031602 -5.4916 c0.0023828 -0.22442 -0.011602 -0.4484 -0.041992 -0.6704 c-0.034414 -0.32238 -0.18801 -0.6204 -0.43084 -0.8352 l-0.9924 -0.19801 c-0.30281 -0.20281 -0.4064 -0.6 -0.24199 -0.9252 c0.052812 -0.14359 0.17801 -0.24879 0.32879 -0.27598 c0.14441 -0.036016 0.2932 -0.054412 0.442 -0.054804 c1.27 0.0023828 2.5396 0.0091796 3.8092 0.020391 c0.14879 0.0060156 0.29558 0.034414 0.43596 0.084024 c0.14441 0.05078 0.25121 0.17359 0.28199 0.32359 c0.066408 0.2252 0.046408 0.4672 -0.055976 0.6788 c-0.08 0.04 -0.17922 0.13281 -0.27562 0.13 c-0.38801 -0.018008 -0.7728 0.08 -1.1048 0.28238 c-0.1848 0.35442 -0.28242 0.7476 -0.28524 1.1472 c-0.016016 0.2984 -0.013633 0.5976 -0.013633 0.8964 c0 2.7648 0.0071876 5.5296 -0.0032031 8.2936 c-0.0087892 2.2792 -0.037578 4.558 -0.061992 6.8364 c0.0067968 0.37359 -0.011211 0.74756 -0.054024 1.1188 c-0.093592 0.854 -0.12918 1.7136 -0.10637 2.5724 c-0.014414 1.494 -0.031602 2.9884 -0.051992 4.4824 c0.026797 0.23719 -0.032812 0.47596 -0.16801 0.67276 c-0.31078 0.15602 -0.64756 0.2532 -0.9936 0.28719 c-0.20078 -0.018008 -0.38719 -0.11242 -0.5208 -0.26363 c-0.23199 -0.24238 -0.4516 -0.49596 -0.6584 -0.7604 c-0.26762 -0.35879 -0.51684 -0.73276 -0.75684 -1.11 c-0.8324 -1.2864 -1.7612 -2.5072 -2.7788 -3.6528 c-0.5452 -0.6152 -1.05 -1.2652 -1.5108 -1.9456 c-0.6004 -0.9464 -1.2496 -1.8608 -1.944 -2.7404 c-0.43 -0.5168 -0.8744 -1.022 -1.2892 -1.5508 c-0.6452 -0.8228 -1.2792 -1.6544 -1.9028 -2.4944 c-0.6244 -0.8388 -1.23 -1.6912 -1.8448 -2.5372 c-0.8352 -1.1476 -1.672 -2.294 -2.51 -3.4388 c-0.08078 -0.075196 -0.17359 -0.1368 -0.27438 -0.18238 c-0.083984 0.33602 -0.091172 0.6868 -0.021562 1.026 c0.095588 0.6664 0.10199 1.3424 0.01918 2.0104 c-0.04 0.2584 -0.048008 0.5208 -0.023594 0.78116 c0.088788 0.9676 0.11438 1.9392 0.077576 2.91 c0.036797 0.8216 0.007578 1.6448 -0.088008 2.4616 c-0.019609 0.18558 -0.025195 0.37277 -0.017188 0.55916 c-0.004414 1.4944 -0.0076172 2.9888 -0.0096092 4.4828 c-0.013203 0.2616 -0.005586 0.5232 0.022422 0.7832 c0.12238 0.964 0.16957 1.936 0.14117 2.9072 c-0.0012109 0.22359 0.0091796 0.4476 0.030781 0.6704 c0.056408 0.33961 0.30359 0.6168 0.63436 0.7116 c0.1452 0.032383 0.29442 0.034375 0.44404 0.057188 c0.1084 0.016406 0.2152 0.041992 0.31121 0.063592 c0.3232 0.29442 0.2248 0.6212 0.098008 0.9364 c-0.04922 0.09922 -0.13762 0.17402 -0.24363 0.20641 c-0.21641 0.054412 -0.438 0.083204 -0.6608 0.086016 c-1.1212 0.005586 -2.242 0 -3.3624 -0.0035938 c-0.26879 0.021211 -0.53596 -0.053204 -0.7552 -0.21039 c-0.1648 -0.30602 -0.16801 -0.67404 -0.0087892 -0.9828 c0.3248 -0.2152 0.7516 -0.24359 1.1112 -0.4328 c0.21801 -0.1532 0.3532 -0.39762 0.36719 -0.66364 c0.19039 -1.4072 0.25359 -2.8292 0.18961 -4.248 c-0.11719 -1.346 -0.080392 -2.6864 -0.0984 -4.03 c-0.017617 -0.4856 0.0079688 -0.9716 0.076756 -1.4524 c0.033984 -0.25922 0.046796 -0.52084 0.038789 -0.78244 c0.0023828 -2.2788 0.021992 -4.558 -0.0067968 -6.8368 z M328.74799999999993 40.2332 l0.0052736 0.013672 c-0.6732 -0.022383 -1.346 -0.026797 -2.0156 -0.0716 c-0.7816 -0.049608 -1.5568 -0.17641 -2.3136 -0.3784 c-0.1084 -0.028789 -0.21641 -0.058008 -0.32602 -0.084024 c-1.7776 -0.4552 -3.4432 -1.2696 -4.8944 -2.3928 c-0.3648 -0.26078 -0.7028 -0.5568 -1.0096 -0.8836 c-1.062 -1.0568 -1.91 -2.3088 -2.4976 -3.6872 c-0.35199 -0.9048 -0.6232 -1.8392 -0.8108 -2.792 c-0.13 -0.5832 -0.21442 -1.176 -0.25203 -1.7728 c-0.0083984 -0.22238 -0.063984 -0.44276 -0.089572 -0.66476 c-0.039219 -0.33359 -0.093204 -0.6672 -0.10082 -1.0016 c-0.015195 -0.7096 -0.023203 -1.4204 0 -2.1292 c0.0416 -0.9336 0.20398 -1.858 0.484 -2.7496 c0.6496 -2.2352 1.8444 -4.274 3.4776 -5.9328 c1.4628 -1.456 3.2608 -2.5312 5.2356 -3.1308 c1.174 -0.37359 2.3884 -0.6064 3.6176 -0.69404 c0.22281 -0.016016 0.4452 -0.045236 0.6668 -0.078048 c0.7368 -0.13441 1.4916 -0.1368 2.2296 -0.0067968 c0.18281 0.037188 0.36883 0.0584 0.55564 0.063592 c1.0444 0.06078 2.0788 0.24078 3.0824 0.53636 c1.1192 0.3016 2.184 0.778 3.1548 1.4112 c1.3504 0.8744 2.5588 1.9504 3.5836 3.1904 c1.1852 1.4072 2.0076 3.0832 2.3956 4.8812 c0.3168 1.2688 0.486 2.57 0.5044 3.8776 c-0.0028125 0.037188 -0.0028125 0.074804 0 0.11199 c0.11039 1.1524 0.025976 2.3152 -0.24922 3.4396 c-0.29398 1.6192 -0.83476 3.1836 -1.6024 4.6388 c-0.406 0.8012 -0.9344 1.5344 -1.5656 2.1732 c-0.9396 0.7944 -1.9332 1.5228 -2.9736 2.18 c-1.0476 0.5768 -2.1572 1.0332 -3.3076 1.3604 c-1.1792 0.36398 -2.4044 0.55636 -3.6384 0.57196 c-0.4484 0.0048048 -0.8968 0 -1.346 0 z M320.09259999999995 26.305999999999997 l0.0016016 -0.0020703 c0.010781 0.3516 -0.011602 1.0276 0.063592 1.6928 c0.10879 0.9628 0.26918 1.9208 0.4424 2.8748 c0.13641 0.8096 0.33402 1.6072 0.59164 2.3868 c0.53 1.642 1.4596 3.1272 2.7056 4.3208 c1.2692 1.2448 2.9868 1.9248 4.7644 1.8856 c1.2296 -0.0716 2.438 -0.35442 3.5716 -0.8368 c0.9692 -0.4904 1.8356 -1.1616 2.5528 -1.9768 c0.934 -1.074 1.652 -2.3176 2.1152 -3.6628 c0.6204 -1.8008 0.99596 -3.6764 1.1176 -5.5772 c0.035195 -0.4832 0.084412 -0.9672 0.1152 -1.4496 c0.030391 -0.2216 0.028398 -0.446 -0.005586 -0.6668 c-0.086796 -0.4396 -0.12359 -0.8876 -0.10918 -1.3356 c0.0076172 -0.6724 -0.077576 -1.3428 -0.25238 -1.9924 c-0.19199 -0.682 -0.34879 -1.3736 -0.5364 -2.0572 c-0.25641 -0.936 -0.6088 -1.8432 -1.0516 -2.7068 c-0.6812 -1.2492 -1.6272 -2.3344 -2.7724 -3.1792 c-0.2332 -0.18719 -0.4852 -0.34918 -0.752 -0.484 c-2.0832 -1.0232 -3.6596 -1.074 -5.7556 -0.56636 c-1.4628 0.5112 -2.822 1.1812 -3.7812 2.4652 c-0.066796 0.089608 -0.14559 0.17039 -0.21598 0.25758 c-0.476 0.5768 -0.8664 1.2192 -1.16 1.9068 c-0.14441 0.34442 -0.30203 0.6832 -0.4292 1.034 c-0.3316 0.832 -0.5964 1.6888 -0.79244 2.5628 c-0.31442 1.6832 -0.4576 3.394 -0.4276 5.1064 z M346.33739999999995 39.970391 c-0.28922 0.0032031 -0.56592 -0.11746 -0.75992 -0.33188 c-0.092812 -0.22442 -0.062032 -0.4812 0.081564 -0.6768 c0.2416 -0.16879 0.5128 -0.29039 0.7992 -0.3584 c0.28281 -0.11641 0.4864 -0.36961 0.5384 -0.6708 c0.040392 -0.18199 0.058788 -0.3684 0.055588 -0.5544 c-0.086408 -2.8384 0.084376 -5.6744 0.061564 -8.512 c-0.035195 -1.1576 0.0071876 -2.316 0.12598 -3.4676 c0.018398 -0.18602 0.015195 -0.37363 -0.0096092 -0.55884 c-0.14 -1.524 -0.17602 -3.0556 -0.10762 -4.5848 c0.041992 -1.718 0.010391 -3.4352 -0.022812 -5.152 c-0.0028125 -0.26121 -0.026797 -0.5216 -0.072384 -0.7788 c-0.0416 -0.2868 -0.21359 -0.538 -0.4656 -0.6804 l-0.8832 -0.1552 c-0.1716 -0.25558 -0.26121 -0.55796 -0.25641 -0.86596 c0.039219 -0.15199 0.15641 -0.2716 0.30719 -0.31398 c0.1752 -0.06078 0.35719 -0.10078 0.5416 -0.11918 c0.3368 -0.019609 0.6732 -0.0067968 1.0096 -0.0096092 c1.8296 -0.014414 3.6596 -0.029219 5.4892 -0.044804 c0.2616 -0.038398 0.5284 0.0096092 0.7604 0.13641 c0.15398 0.16199 0.2532 0.36758 0.28442 0.5888 c0.053984 0.2268 -0.064024 0.45916 -0.27883 0.54916 c-0.13922 0.052384 -0.28203 0.094376 -0.42724 0.12637 c-0.30801 0.05922 -0.602 0.17723 -0.86596 0.34762 c-0.25281 0.4452 -0.37883 0.952 -0.36363 1.464 c0 0.7456 0.041992 1.492 0.073204 2.2372 c0.016406 0.37238 0.078008 0.7436 0.078008 1.1152 c0 3.398 -0.013594 6.796 -0.01 10.194 c0 1.12 0.046016 2.2396 0.064024 3.36 c-0.011211 0.7464 0.035586 1.4932 0.13957 2.2324 c0.05922 0.4452 0.051212 0.8968 -0.024805 1.3392 c-0.064412 0.4808 -0.11043 0.96476 -0.15324 1.448 c-0.041992 0.29879 -0.011602 0.6036 0.08918 0.8884 c0.13199 0.22558 0.34238 0.3952 0.5916 0.4764 c0.5292 0.1948 1.102 0.2416 1.656 0.1348 c0.6264 -0.10281 1.2616 -0.14402 1.896 -0.12242 c1.0456 -0.0028125 2.0916 -0.011211 3.1368 0 c0.598 -0.004414 1.192 -0.095624 1.7636 -0.27082 c0.17922 -0.051992 0.35402 -0.11801 0.5224 -0.19762 c0.6284 -0.26199 1.126 -0.76436 1.382 -1.3956 c0.12602 -0.31121 0.27562 -0.6116 0.4176 -0.9156 c0.023984 -0.035195 0.051992 -0.067188 0.083984 -0.095196 c0.22398 -0.19602 0.524 -0.28281 0.81796 -0.23602 c0.22762 0.038789 0.39883 0.2284 0.41404 0.4588 c0.0023828 0.14879 -0.014805 0.29719 -0.051212 0.4416 c-0.27719 0.852 -0.47276 1.7288 -0.584 2.618 c-0.013984 0.11078 -0.041992 0.21957 -0.083984 0.32356 c-0.10879 0.32801 -0.39359 0.5664 -0.7356 0.616 c-0.29641 0.036016 -0.5948 0.052424 -0.8932 0.048436 c-4.7804 -0.0083984 -9.5604 -0.019609 -14.34 -0.033203 c-0.5972 0 -1.1944 -0.018789 -1.7912 -0.042384 z M380.21399999999994 40.2332 l0.0052736 0.013672 c-0.6732 -0.022383 -1.346 -0.026797 -2.0156 -0.0716 c-0.7816 -0.049608 -1.5568 -0.17641 -2.3136 -0.3784 c-0.1084 -0.028789 -0.21641 -0.058008 -0.32602 -0.084024 c-1.7776 -0.4552 -3.4432 -1.2696 -4.8944 -2.3928 c-0.3648 -0.26078 -0.7028 -0.5568 -1.0096 -0.8836 c-1.062 -1.0568 -1.91 -2.3088 -2.4976 -3.6872 c-0.35199 -0.9048 -0.6232 -1.8392 -0.8108 -2.792 c-0.13 -0.5832 -0.21442 -1.176 -0.25203 -1.7728 c-0.0083984 -0.22238 -0.063984 -0.44276 -0.089572 -0.66476 c-0.039219 -0.33359 -0.093204 -0.6672 -0.10082 -1.0016 c-0.015195 -0.7096 -0.023203 -1.4204 0 -2.1292 c0.0416 -0.9336 0.20398 -1.858 0.484 -2.7496 c0.6496 -2.2352 1.8444 -4.274 3.4776 -5.9328 c1.4628 -1.456 3.2608 -2.5312 5.2356 -3.1308 c1.174 -0.37359 2.3884 -0.6064 3.6176 -0.69404 c0.22281 -0.016016 0.4452 -0.045236 0.6668 -0.078048 c0.7368 -0.13441 1.4916 -0.1368 2.2296 -0.0067968 c0.18281 0.037188 0.36883 0.0584 0.55564 0.063592 c1.0444 0.06078 2.0788 0.24078 3.0824 0.53636 c1.1192 0.3016 2.184 0.778 3.1548 1.4112 c1.3504 0.8744 2.5588 1.9504 3.5836 3.1904 c1.1852 1.4072 2.0076 3.0832 2.3956 4.8812 c0.3168 1.2688 0.486 2.57 0.5044 3.8776 c-0.0028125 0.037188 -0.0028125 0.074804 0 0.11199 c0.11039 1.1524 0.025976 2.3152 -0.24922 3.4396 c-0.29398 1.6192 -0.83476 3.1836 -1.6024 4.6388 c-0.406 0.8012 -0.9344 1.5344 -1.5656 2.1732 c-0.9396 0.7944 -1.9332 1.5228 -2.9736 2.18 c-1.0476 0.5768 -2.1572 1.0332 -3.3076 1.3604 c-1.1792 0.36398 -2.4044 0.55636 -3.6384 0.57196 c-0.4484 0.0048048 -0.8968 0 -1.346 0 z M371.55859999999996 26.305999999999997 l0.0016016 -0.0020703 c0.010781 0.3516 -0.011602 1.0276 0.063592 1.6928 c0.10879 0.9628 0.26918 1.9208 0.4424 2.8748 c0.13641 0.8096 0.33402 1.6072 0.59164 2.3868 c0.53 1.642 1.4596 3.1272 2.7056 4.3208 c1.2692 1.2448 2.9868 1.9248 4.7644 1.8856 c1.2296 -0.0716 2.438 -0.35442 3.5716 -0.8368 c0.9692 -0.4904 1.8356 -1.1616 2.5528 -1.9768 c0.934 -1.074 1.652 -2.3176 2.1152 -3.6628 c0.6204 -1.8008 0.99596 -3.6764 1.1176 -5.5772 c0.035195 -0.4832 0.084412 -0.9672 0.1152 -1.4496 c0.030391 -0.2216 0.028398 -0.446 -0.005586 -0.6668 c-0.086796 -0.4396 -0.12359 -0.8876 -0.10918 -1.3356 c0.0076172 -0.6724 -0.077576 -1.3428 -0.25238 -1.9924 c-0.19199 -0.682 -0.34879 -1.3736 -0.5364 -2.0572 c-0.25641 -0.936 -0.6088 -1.8432 -1.0516 -2.7068 c-0.6812 -1.2492 -1.6272 -2.3344 -2.7724 -3.1792 c-0.2332 -0.18719 -0.4852 -0.34918 -0.752 -0.484 c-2.0832 -1.0232 -3.6596 -1.074 -5.7556 -0.56636 c-1.4628 0.5112 -2.822 1.1812 -3.7812 2.4652 c-0.066796 0.089608 -0.14559 0.17039 -0.21598 0.25758 c-0.476 0.5768 -0.8664 1.2192 -1.16 1.9068 c-0.14441 0.34442 -0.30203 0.6832 -0.4292 1.034 c-0.3316 0.832 -0.5964 1.6888 -0.79244 2.5628 c-0.31442 1.6832 -0.4576 3.394 -0.4276 5.1064 z M421.16799999999995 38.27 c-0.013594 0.12199 -0.037656 0.24297 -0.07164 0.36098 c-0.11039 0.085196 -0.2316 0.15598 -0.36039 0.21039 c-0.5364 0.16 -1.076 0.31078 -1.6192 0.4436 c-0.652 0.16 -1.306 0.3132 -1.9648 0.4424 c-1.2764 0.2816 -2.5744 0.4552 -3.88 0.5184 c-0.4836 0.012383 -0.9672 0.083984 -1.4496 0.1132 c-0.22281 0.0087892 -0.446 0.0039844 -0.6684 -0.014414 c-0.29801 -0.018008 -0.5952 -0.074024 -0.892 -0.067616 c-1.0468 0.0092188 -2.0916 -0.087968 -3.1188 -0.28996 c-0.33121 -0.055588 -0.658 -0.1348 -0.9776 -0.23762 c-1.6072 -0.5072 -3.1032 -1.3168 -4.4068 -2.3848 c-0.7672 -0.598 -1.4488 -1.298 -2.026 -2.0808 c-0.23039 -0.33961 -0.45596 -0.68404 -0.6604 -1.0392 c-0.6828 -1.1164 -1.2296 -2.3108 -1.628 -3.5572 c-0.14 -0.5028 -0.24961 -1.0132 -0.32762 -1.5292 c-0.21719 -1.7052 -0.28 -3.4264 -0.18762 -5.1432 c-0.0048048 -0.22442 0.0091796 -0.4484 0.041992 -0.6704 c0.2968 -1.9228 0.9292 -3.7788 1.8676 -5.4832 c0.5588 -0.9736 1.2596 -1.8588 2.0792 -2.626 c0.21762 -0.2048 0.45204 -0.39082 0.70044 -0.55684 c1.68 -1.1248 3.5472 -1.9408 5.5136 -2.4096 c0.6172 -0.14078 1.2476 -0.22476 1.8728 -0.32918 c0.22078 -0.036797 0.4476 -0.041992 0.6656 -0.08918 c0.4772 -0.094412 0.964 -0.13082 1.45 -0.10922 c1.2316 0.030781 2.4572 0.18277 3.6592 0.45436 c0.5112 0.11359 1.006 0.29238 1.4724 0.53116 c0.6972 0.3584 1.3908 0.724 2.0852 1.0888 c0.29719 0.15641 0.5888 0.32641 0.88756 0.4772 c0.2948 0.14398 0.6364 0.15797 0.9416 0.037578 l0.4812 -0.5324 c0.31558 -0.09 0.64 -0.19039 0.936 0.1748 c0.032812 0.1684 0.055624 0.33918 0.068008 0.5104 c0.02 0.784 0.031602 1.5688 0.041992 2.3532 c-0.028398 0.672 0.0071876 1.3448 0.10719 2.01 c0.0019922 0.037188 0.0012109 0.074804 -0.0032031 0.1116 c-0.017617 0.18961 -0.14684 0.35 -0.32805 0.4076 c-0.26641 0.058788 -0.5428 0.057576 -0.80884 -0.0036328 c-0.17641 -0.12078 -0.31442 -0.28957 -0.39762 -0.48676 c-0.4172 -0.7508 -0.8768 -1.4776 -1.376 -2.1768 c-1.4952 -2.0924 -3.7512 -3.5152 -6.2832 -3.9632 c-0.7756 -0.13359 -1.5676 -0.1368 -2.344 -0.01 c-0.18442 0.024805 -0.3648 0.084024 -0.55 0.10242 c-1.0812 0.14078 -2.0964 0.59796 -2.9184 1.3144 c-0.8112 0.664 -1.5152 1.4488 -2.0868 2.328 c-1.0564 1.6368 -1.7792 3.4664 -2.126 5.3836 c-0.16602 0.8436 -0.2532 1.7008 -0.26039 2.5604 c-0.014414 1.158 -0.014024 2.3172 0.024766 3.4744 c0.053984 1.646 0.37957 3.2716 0.96436 4.8108 c0.30879 0.8028 0.702 1.5708 1.1724 2.2908 c0.7664 1.1588 1.8052 2.112 3.0256 2.776 c0.492 0.26762 0.9984 0.508 1.5168 0.72 c0.5804 0.2632 1.2112 0.39801 1.8484 0.3948 c0.5608 -0.011602 1.1208 -0.012812 1.68 -0.0040236 c0.7896 -0.023203 1.5536 -0.28398 2.1924 -0.7484 c0.1852 -0.12559 0.34359 -0.28758 0.4648 -0.47596 c0.5628 -0.8408 0.9552 -1.784 1.1548 -2.776 c0.045588 -0.21922 0.042772 -0.44524 -0.0084376 -0.66324 c-0.092812 -0.4388 -0.13242 -0.8868 -0.11723 -1.3352 c-0.0051952 -0.5604 -0.021992 -1.1208 -0.028398 -1.6824 c-0.012383 -0.4116 -0.088788 -0.8184 -0.22558 -1.2068 c-0.11199 -0.4068 -0.4512 -0.7112 -0.868 -0.7784 c-0.25238 -0.050392 -0.5276 0.0083984 -0.75436 -0.15879 c-0.16801 -0.33039 -0.21402 -0.7096 -0.13043 -1.0708 c0.012812 -0.0984 0.1068 -0.18641 0.1584 -0.27082 c0.36922 -0.090392 0.7492 -0.12719 1.1288 -0.11 c0.6348 -0.004414 1.2704 0 1.9056 0 c0.5972 0.0019922 1.194 -0.030391 1.7872 -0.095588 c1.1176 -0.091992 2.24 -0.11039 3.36 -0.055196 c0.074412 0.0039844 0.14762 0.01918 0.21762 0.045588 c0.1832 0.0516 0.32961 0.19 0.39199 0.37039 c0.11359 0.32719 0.11039 0.684 -0.0083984 1.0096 c-0.086408 0.054804 -0.18 0.097188 -0.2784 0.12598 c-0.26121 0.012812 -0.5176 0.078828 -0.7532 0.19324 c-0.16442 0.084804 -0.3116 0.2 -0.4332 0.33961 c-0.32442 0.416 -0.50724 0.9244 -0.52204 1.4516 l0 0.11242 c-0.0019922 1.382 -0.0039844 2.7644 -0.0059764 4.1464 c0 1.0096 -0.0028125 2.0192 -0.01043 3.026 z M431.75379999999996 38.1732 c0.039609 0.1216 0.091876 0.23836 0.15586 0.34914 l1.1908 0.36442 c0.1932 0.21398 0.23359 0.52476 0.1016 0.78116 c-0.051992 0.14359 -0.17558 0.24961 -0.32598 0.27883 c-0.14559 0.029609 -0.29398 0.044024 -0.44276 0.042424 c-1.0464 -0.005586 -2.0924 -0.024375 -3.1388 -0.023594 c-0.9344 0 -1.8684 0.023203 -2.8024 0.03 c-0.4036 0.03 -0.8092 0.0051952 -1.206 -0.074412 c-0.3784 -0.4368 -0.3784 -0.5468 -0.011211 -1.072 c0.28078 -0.073204 0.57 -0.13762 0.8508 -0.22562 c0.1816 -0.059608 0.32602 -0.19883 0.39203 -0.37844 c0.084804 -0.20641 0.14602 -0.4216 0.18203 -0.642 c0.03 -0.25961 0.043204 -0.5212 0.038789 -0.7828 c0.013203 -1.2704 0.029609 -2.5412 0.03 -3.8116 c0 -0.9716 -0.028008 -1.9432 -0.032422 -2.9148 c-0.0060156 -1.5324 0 -3.064 -0.0035938 -4.5964 c-0.0039844 -1.2708 0.0024219 -2.542 -0.030391 -3.812 c-0.041992 -1.606 0.015625 -3.2128 0.17203 -4.8116 c0.13762 -0.928 0.083632 -1.8748 -0.15957 -2.7812 c-0.041992 -0.1852 -0.14398 -0.35121 -0.29039 -0.472 c-0.36398 -0.20762 -0.81796 0.018789 -1.188 -0.2216 c-0.14559 -0.2552 -0.21 -0.5484 -0.1848 -0.8412 c0.073592 -0.18 0.23879 -0.3068 0.432 -0.33199 c0.18442 -0.027188 0.37082 -0.041172 0.5576 -0.041952 c2.1312 -0.014414 4.262 -0.026797 6.3932 -0.036797 c0.11199 0 0.22438 0.0064064 0.33676 0.013203 c0.13199 -0.0035938 0.26039 0.045624 0.35641 0.13684 c0.095588 0.091212 0.15078 0.21723 0.15316 0.34961 c0.008008 0.073984 0.011602 0.14879 0.010391 0.2232 c0.019219 0.31359 -0.20476 0.5896 -0.51556 0.63564 c-0.14441 0.035586 -0.30043 0.030781 -0.44044 0.076796 c-0.1652 0.061992 -0.32641 0.1332 -0.4836 0.2132 c-0.23762 0.3968 -0.36242 0.8504 -0.36242 1.3128 c-0.0096092 0.5604 -0.0051952 1.1212 -0.0023828 1.6824 c0.0071876 1.2332 0.012774 2.466 0.028359 3.7012 c-0.0076172 0.4108 0.015195 0.82156 0.068008 1.2292 c0.077616 0.5552 0.10922 1.1156 0.094804 1.6756 c-0.0076172 2.1304 -0.02082 4.2604 -0.026406 6.3912 c0 0.7472 0.017617 1.4948 0.018828 2.242 c0.037617 0.7096 0.0012109 1.4212 -0.10918 2.1228 c-0.083204 1.3432 -0.018789 2.6916 0.19281 4.0204 z M450.024 22.867 c0.10559 -0.3284 0.17703 -0.65476 0.27062 -1.0008 c0.22719 -0.19442 0.54 -0.2552 0.8236 -0.16039 c0.22719 0.044804 0.402 0.22558 0.4396 0.454 c0.030781 0.2216 0.046368 0.4448 0.046368 0.6688 c0.008008 0.784 0.013594 1.5684 0.0096092 2.3524 c-0.0060156 1.234 -0.017226 2.4664 -0.034024 3.698 c-0.008008 0.1484 -0.027617 0.29602 -0.058828 0.4412 c-0.046408 0.18641 -0.21039 0.32 -0.402 0.32719 c-0.27922 0.037617 -0.5596 -0.0584 -0.75724 -0.2584 c-0.0616 -0.24558 -0.1152 -0.53916 -0.21039 -0.8192 c-0.1 -0.28121 -0.2184 -0.556 -0.35398 -0.8216 c-0.11602 -0.23359 -0.24602 -0.4596 -0.38922 -0.67724 c-0.26558 -0.414 -0.6888 -0.7016 -1.1716 -0.796 c-0.3252 -0.083592 -0.6568 -0.14 -0.9912 -0.1684 c-1.4184 -0.0716 -2.838 -0.06922 -4.2576 -0.04922 c-0.19281 -0.022812 -0.38442 0.05 -0.51404 0.19442 c-0.081212 0.2032 -0.1084 0.4244 -0.0784 0.6412 c-0.0019922 1.8304 -0.0019922 3.6608 0 5.4908 c0 1.6808 0.0016016 3.3616 0.0048048 5.0428 c0 0.26078 0.023203 0.5224 0.045196 0.7824 c0.010391 0.1116 0.033984 0.2216 0.06918 0.32801 c0.051992 0.18199 0.16961 0.3384 0.33039 0.4384 c0.3132 0.2068 0.6764 0.3248 1.0512 0.3416 c0.22442 0 0.4484 0.0067968 0.6732 0.004414 c1.7184 -0.019219 3.4364 -0.042032 5.1548 -0.057616 c0.5968 -0.028008 1.19 -0.10879 1.7728 -0.24117 c0.4804 -0.098008 0.9188 -0.34359 1.2528 -0.7024 c0.32121 -0.31359 0.5932 -0.6736 0.8072 -1.0684 c0.1684 -0.3316 0.3416 -0.6628 0.516 -1.0008 c0.33442 -0.20078 0.7592 -0.17117 1.0624 0.074844 c0.008008 0.11039 0.008008 0.2216 0 0.33199 c-0.1332 0.8856 -0.27199 1.77 -0.408 2.6548 c-0.012383 0.24922 -0.13797 0.4792 -0.34117 0.6244 c-0.19602 0.021211 -0.4528 0.06 -0.7108 0.073204 c-0.7076 0.037188 -1.414 0.0584 -2.1216 0.13359 c-0.7812 0.079608 -1.5684 0.073592 -2.3484 -0.018008 c-0.4068 -0.045588 -0.818 -0.067576 -1.2276 -0.073984 c-2.2036 -0.035195 -4.4072 -0.07 -6.6112 -0.08922 c-1.718 -0.014414 -3.4368 -0.004414 -5.1552 -0.01043 c-0.29801 0 -0.59564 -0.022812 -0.89324 -0.042032 c-0.1484 -0.032812 -0.26359 -0.15 -0.29438 -0.29879 c-0.056408 -0.2532 -0.031992 -0.518 0.070392 -0.7568 c0.10121 -0.1152 0.24402 -0.18442 0.39684 -0.19281 c0.29762 -0.024414 0.5996 -0.026406 0.892 -0.07922 c0.34 -0.054804 0.6288 -0.27801 0.768 -0.5928 c0.16801 -0.3352 0.26281 -0.7024 0.2784 -1.0768 c0.026016 -1.5688 0.062032 -3.1372 0.078436 -4.7056 c0.016406 -1.606 -0.032383 -3.2144 0.035625 -4.8176 c0.047616 -1.12 0.084024 -2.2384 0.076016 -3.358 c-0.0019922 -0.4092 -0.05918 -0.8176 -0.078788 -1.2268 c-0.04 -0.8204 -0.097188 -1.6404 -0.10117 -2.4616 c-0.0071876 -1.5684 0.02082 -3.1372 0.027617 -4.7064 c0.0076172 -0.37281 -0.0063672 -0.746 -0.042384 -1.1172 c-0.030781 -0.5064 -0.41276 -0.9212 -0.91476 -0.9936 c-0.21801 -0.05 -0.4388 -0.088788 -0.66 -0.12641 c-0.22078 -0.037188 -0.4376 -0.070392 -0.63956 -0.10238 c-0.20801 -0.28641 -0.24602 -0.66244 -0.099608 -0.9844 c0.086796 -0.057616 0.18199 -0.1016 0.28199 -0.13039 c0.25922 -0.033984 0.52 -0.051992 0.7812 -0.053204 c1.0836 -0.0032031 2.1672 0.0051952 3.2504 0.0048048 c1.8676 0 3.7352 -0.0016016 5.6028 -0.0051952 c0.074804 0 0.14961 -0.0028125 0.22442 0 c2.5396 0.011211 5.0796 0.023203 7.6192 0.036016 c0.14879 -0.0028125 0.29758 0.014375 0.44156 0.05078 c0.1068 0.048008 0.20602 0.11121 0.29442 0.18723 c0.039609 0.17558 0.090392 0.35438 0.11961 0.53676 c0.15801 0.9944 0.31242 1.9896 0.4628 2.9864 c0.00078124 0.073984 -0.008008 0.14797 -0.026406 0.21996 c-0.035586 0.14719 -0.1448 0.26558 -0.28879 0.31277 c-0.26719 0.086408 -0.5588 0.052812 -0.7992 -0.092772 c-0.21762 -0.4628 -0.4324 -0.98 -0.696 -1.4692 c-0.37398 -0.742 -1.0028 -1.3244 -1.7708 -1.6404 c-0.099608 -0.0516 -0.2052 -0.089608 -0.3148 -0.11402 c-0.6224 -0.12281 -1.252 -0.20883 -1.8848 -0.25723 c-1.6824 0 -3.362 0 -5.0428 0.0039844 c-0.25719 -0.025586 -0.5168 0.011211 -0.7568 0.10801 c-0.1252 0.091992 -0.19238 0.24277 -0.17719 0.39719 c-0.013594 1.4564 -0.033203 2.9132 -0.034805 4.37 c0 1.98 0.010391 3.9592 0.014375 5.9392 c-0.020781 0.4456 0.0032031 0.892 0.0716 1.3328 c0.098788 0.062384 0.20719 0.10719 0.32117 0.13199 c1.346 -0.004414 2.6892 -0.0060156 4.0332 -0.039609 c0.4844 -0.027617 0.9668 -0.083632 1.4444 -0.16844 c0.57 -0.065196 1.0644 -0.4236 1.304 -0.9448 c0.17039 -0.37281 0.31719 -0.7564 0.4384 -1.1484 z M458.29949999999997 38.206 c-0.30801 0.38121 -0.68336 0.42188 -1.219 0.11309 c-0.05 -0.2048 -0.081212 -0.4136 -0.093592 -0.62436 c-0.0023828 -0.6352 0.028828 -1.27 0.093632 -1.902 c0.084412 -0.6668 0.086016 -1.3416 0.004414 -2.0092 c-0.035586 -0.4092 -0.0416 -0.82044 -0.018398 -1.2304 c0.026016 -0.27238 0.25242 -0.4824 0.5264 -0.4872 c0.38 -0.069608 0.7628 0.1084 0.9552 0.4436 c0.13359 0.2248 0.2548 0.4568 0.36281 0.6948 c0.5968 1.2068 1.3036 2.356 2.1124 3.4324 c0.9628 1.354 2.3788 2.3176 3.9916 2.7168 c0.728 0.17879 1.4836 0.21238 2.2248 0.099572 c0.6736 -0.09 1.2996 -0.39641 1.7836 -0.8736 c0.94 -0.8704 1.58 -2.016 1.8296 -3.2724 c0.10879 -0.552 0.0916 -1.1216 -0.05 -1.666 c-0.11961 -0.6256 -0.3768 -1.2168 -0.7536 -1.7304 c-0.13641 -0.17641 -0.2916 -0.33801 -0.4628 -0.4812 c-1.4136 -1.1064 -2.97 -2.0172 -4.6268 -2.7084 c-1.2232 -0.4644 -2.392 -1.0612 -3.4852 -1.7804 c-1.13 -0.8044 -2.09 -1.8244 -2.824 -3.0012 c-0.4008 -0.6328 -0.6836 -1.3332 -0.83436 -2.0668 c-0.21641 -0.908 -0.34199 -1.8352 -0.3752 -2.768 c0.01 -0.8212 0.13 -1.6372 0.3568 -2.4268 c0.0816 -0.3268 0.21121 -0.6396 0.3848 -0.9284 c0.13641 -0.22281 0.25922 -0.4544 0.3932 -0.67884 c0.5904 -1.0032 1.4376 -1.8308 2.4544 -2.3976 c1.754 -0.9884 2.0408 -1.0008 3.9304 -1.048 c1.4244 -0.032812 2.8372 0.26078 4.1308 0.85756 c0.544 0.24602 1.082 0.50724 1.6152 0.77724 c0.31121 0.18039 0.66724 0.26879 1.0268 0.25438 l0.6948 -0.4168 c0.1832 -0.073204 0.39281 -0.027617 0.5296 0.11476 c0.095196 0.1132 0.16 0.24801 0.18922 0.39242 c0.027617 0.22238 0.037617 0.44636 0.029219 0.67036 c0 1.0836 -0.0012109 2.1672 -0.0032031 3.2512 c0.0039844 0.18641 -0.0076172 0.37242 -0.034805 0.55684 c-0.033203 0.10078 -0.08082 0.19637 -0.14242 0.28277 c-0.3684 0.16602 -0.794 0.14641 -1.1456 -0.052812 c-0.13559 -0.29879 -0.29039 -0.63596 -0.4416 -0.97436 c-0.7096 -1.5352 -1.8176 -2.852 -3.2096 -3.8128 c-0.24602 -0.16961 -0.5024 -0.3232 -0.768 -0.4604 c-0.9356 -0.4816 -1.998 -0.6608 -3.0396 -0.5116 c-0.674 0.086016 -1.2924 0.4168 -1.7384 0.9296 c-0.23199 0.24398 -0.43276 0.5156 -0.59796 0.8092 c-0.5276 0.9076 -0.8516 1.9188 -0.9496 2.964 c-0.10281 1.0184 0.20359 2.0364 0.8512 2.8292 c0.7808 1.0104 1.7936 1.8184 2.952 2.3552 c1.1628 0.5108 2.3308 1.0096 3.4912 1.5236 c2.1968 0.8968 4.058 2.4588 5.322 4.4668 c0.4972 0.7524 0.7852 1.6236 0.8336 2.524 c0.0071876 0.2984 0.021172 0.5972 0.033555 0.8956 c0.035586 1.8048 -0.44044 3.5828 -1.3728 5.1284 c-0.408 0.6744 -0.95724 1.2528 -1.6096 1.6956 c-1.3004 0.964 -2.8668 1.5028 -4.4852 1.5428 c-0.4852 0.014805 -0.9716 0.0092188 -1.4572 0.014024 c-1.7688 -0.019219 -3.4884 -0.58204 -4.9268 -1.6112 c-0.3732 -0.24762 -0.7444 -0.49724 -1.1192 -0.74204 c-0.19199 -0.11922 -0.4152 -0.17801 -0.6412 -0.1684 c-0.18922 -0.0083984 -0.37203 0.07082 -0.49524 0.2148 c-0.070392 0.083984 -0.11199 0.19558 -0.18238 0.28117 z M489.0884 39.970391 c-0.28922 0.0032031 -0.56592 -0.11746 -0.75992 -0.33188 c-0.092812 -0.22442 -0.062032 -0.4812 0.081564 -0.6768 c0.2416 -0.16879 0.5128 -0.29039 0.7992 -0.3584 c0.28281 -0.11641 0.4864 -0.36961 0.5384 -0.6708 c0.040392 -0.18199 0.058788 -0.3684 0.055588 -0.5544 c-0.086408 -2.8384 0.084376 -5.6744 0.061564 -8.512 c-0.035195 -1.1576 0.0071876 -2.316 0.12598 -3.4676 c0.018398 -0.18602 0.015195 -0.37363 -0.0096092 -0.55884 c-0.14 -1.524 -0.17602 -3.0556 -0.10762 -4.5848 c0.041992 -1.718 0.010391 -3.4352 -0.022812 -5.152 c-0.0028125 -0.26121 -0.026797 -0.5216 -0.072384 -0.7788 c-0.0416 -0.2868 -0.21359 -0.538 -0.4656 -0.6804 l-0.8832 -0.1552 c-0.1716 -0.25558 -0.26121 -0.55796 -0.25641 -0.86596 c0.039219 -0.15199 0.15641 -0.2716 0.30719 -0.31398 c0.1752 -0.06078 0.35719 -0.10078 0.5416 -0.11918 c0.3368 -0.019609 0.6732 -0.0067968 1.0096 -0.0096092 c1.8296 -0.014414 3.6596 -0.029219 5.4892 -0.044804 c0.2616 -0.038398 0.5284 0.0096092 0.7604 0.13641 c0.15398 0.16199 0.2532 0.36758 0.28442 0.5888 c0.053984 0.2268 -0.064024 0.45916 -0.27883 0.54916 c-0.13922 0.052384 -0.28203 0.094376 -0.42724 0.12637 c-0.30801 0.05922 -0.602 0.17723 -0.86596 0.34762 c-0.25281 0.4452 -0.37883 0.952 -0.36363 1.464 c0 0.7456 0.041992 1.492 0.073204 2.2372 c0.016406 0.37238 0.078008 0.7436 0.078008 1.1152 c0 3.398 -0.013594 6.796 -0.01 10.194 c0 1.12 0.046016 2.2396 0.064024 3.36 c-0.011211 0.7464 0.035586 1.4932 0.13957 2.2324 c0.05922 0.4452 0.051212 0.8968 -0.024805 1.3392 c-0.064412 0.4808 -0.11043 0.96476 -0.15324 1.448 c-0.041992 0.29879 -0.011602 0.6036 0.08918 0.8884 c0.13199 0.22558 0.34238 0.3952 0.5916 0.4764 c0.5292 0.1948 1.102 0.2416 1.656 0.1348 c0.6264 -0.10281 1.2616 -0.14402 1.896 -0.12242 c1.0456 -0.0028125 2.0916 -0.011211 3.1368 0 c0.598 -0.004414 1.192 -0.095624 1.7636 -0.27082 c0.17922 -0.051992 0.35402 -0.11801 0.5224 -0.19762 c0.6284 -0.26199 1.126 -0.76436 1.382 -1.3956 c0.12602 -0.31121 0.27562 -0.6116 0.4176 -0.9156 c0.023984 -0.035195 0.051992 -0.067188 0.083984 -0.095196 c0.22398 -0.19602 0.524 -0.28281 0.81796 -0.23602 c0.22762 0.038789 0.39883 0.2284 0.41404 0.4588 c0.0023828 0.14879 -0.014805 0.29719 -0.051212 0.4416 c-0.27719 0.852 -0.47276 1.7288 -0.584 2.618 c-0.013984 0.11078 -0.041992 0.21957 -0.083984 0.32356 c-0.10879 0.32801 -0.39359 0.5664 -0.7356 0.616 c-0.29641 0.036016 -0.5948 0.052424 -0.8932 0.048436 c-4.7804 -0.0083984 -9.5604 -0.019609 -14.34 -0.033203 c-0.5972 0 -1.1944 -0.018789 -1.7912 -0.042384 z M509.5614 39.970391 c-0.28922 0.0032031 -0.56592 -0.11746 -0.75992 -0.33188 c-0.092812 -0.22442 -0.062032 -0.4812 0.081564 -0.6768 c0.2416 -0.16879 0.5128 -0.29039 0.7992 -0.3584 c0.28281 -0.11641 0.4864 -0.36961 0.5384 -0.6708 c0.040392 -0.18199 0.058788 -0.3684 0.055588 -0.5544 c-0.086408 -2.8384 0.084376 -5.6744 0.061564 -8.512 c-0.035195 -1.1576 0.0071876 -2.316 0.12598 -3.4676 c0.018398 -0.18602 0.015195 -0.37363 -0.0096092 -0.55884 c-0.14 -1.524 -0.17602 -3.0556 -0.10762 -4.5848 c0.041992 -1.718 0.010391 -3.4352 -0.022812 -5.152 c-0.0028125 -0.26121 -0.026797 -0.5216 -0.072384 -0.7788 c-0.0416 -0.2868 -0.21359 -0.538 -0.4656 -0.6804 l-0.8832 -0.1552 c-0.1716 -0.25558 -0.26121 -0.55796 -0.25641 -0.86596 c0.039219 -0.15199 0.15641 -0.2716 0.30719 -0.31398 c0.1752 -0.06078 0.35719 -0.10078 0.5416 -0.11918 c0.3368 -0.019609 0.6732 -0.0067968 1.0096 -0.0096092 c1.8296 -0.014414 3.6596 -0.029219 5.4892 -0.044804 c0.2616 -0.038398 0.5284 0.0096092 0.7604 0.13641 c0.15398 0.16199 0.2532 0.36758 0.28442 0.5888 c0.053984 0.2268 -0.064024 0.45916 -0.27883 0.54916 c-0.13922 0.052384 -0.28203 0.094376 -0.42724 0.12637 c-0.30801 0.05922 -0.602 0.17723 -0.86596 0.34762 c-0.25281 0.4452 -0.37883 0.952 -0.36363 1.464 c0 0.7456 0.041992 1.492 0.073204 2.2372 c0.016406 0.37238 0.078008 0.7436 0.078008 1.1152 c0 3.398 -0.013594 6.796 -0.01 10.194 c0 1.12 0.046016 2.2396 0.064024 3.36 c-0.011211 0.7464 0.035586 1.4932 0.13957 2.2324 c0.05922 0.4452 0.051212 0.8968 -0.024805 1.3392 c-0.064412 0.4808 -0.11043 0.96476 -0.15324 1.448 c-0.041992 0.29879 -0.011602 0.6036 0.08918 0.8884 c0.13199 0.22558 0.34238 0.3952 0.5916 0.4764 c0.5292 0.1948 1.102 0.2416 1.656 0.1348 c0.6264 -0.10281 1.2616 -0.14402 1.896 -0.12242 c1.0456 -0.0028125 2.0916 -0.011211 3.1368 0 c0.598 -0.004414 1.192 -0.095624 1.7636 -0.27082 c0.17922 -0.051992 0.35402 -0.11801 0.5224 -0.19762 c0.6284 -0.26199 1.126 -0.76436 1.382 -1.3956 c0.12602 -0.31121 0.27562 -0.6116 0.4176 -0.9156 c0.023984 -0.035195 0.051992 -0.067188 0.083984 -0.095196 c0.22398 -0.19602 0.524 -0.28281 0.81796 -0.23602 c0.22762 0.038789 0.39883 0.2284 0.41404 0.4588 c0.0023828 0.14879 -0.014805 0.29719 -0.051212 0.4416 c-0.27719 0.852 -0.47276 1.7288 -0.584 2.618 c-0.013984 0.11078 -0.041992 0.21957 -0.083984 0.32356 c-0.10879 0.32801 -0.39359 0.5664 -0.7356 0.616 c-0.29641 0.036016 -0.5948 0.052424 -0.8932 0.048436 c-4.7804 -0.0083984 -9.5604 -0.019609 -14.34 -0.033203 c-0.5972 0 -1.1944 -0.018789 -1.7912 -0.042384 z M552.628 33.3332 c0.096016 -0.15602 0.22606 -0.29192 0.36484 -0.46072 c0.34281 -0.12641 0.72204 -0.1084 1.0516 0.049608 c0.1432 0.13398 0.21558 0.32719 0.19637 0.52276 c-0.13641 1 -0.1252 2.0148 0.032812 3.012 c0.083204 0.6688 0.013594 1.348 -0.20359 1.986 c-0.17961 0.19961 -0.462 0.27121 -0.7152 0.1816 c-0.17 -0.074804 -0.31558 -0.19558 -0.4204 -0.34879 c-0.11762 -0.14039 -0.25242 -0.2668 -0.39121 -0.414 c-0.15078 0.022383 -0.3 0.055976 -0.446 0.10039 c-0.6272 0.24078 -1.2508 0.4904 -1.8744 0.7404 c-0.5888 0.23641 -1.1768 0.4748 -1.764 0.7152 c-0.7416 0.25078 -1.5008 0.4476 -2.2712 0.5888 c-1.3608 0.33641 -2.7452 0.24762 -4.126 0.2684 c-1.196 -0.017188 -2.3836 -0.20641 -3.526 -0.5612 c-0.5404 -0.14719 -1.0716 -0.32797 -1.59 -0.54036 c-1.8852 -0.7492 -3.5296 -2.0004 -4.7548 -3.6176 c-0.552 -0.7532 -1.0644 -1.5348 -1.5348 -2.3416 c-0.14801 -0.25922 -0.2684 -0.5332 -0.35918 -0.8176 c-0.4124 -1.1616 -0.7188 -2.3584 -0.9164 -3.5752 c-0.098788 -0.664 -0.2332 -1.3228 -0.33 -1.9868 c-0.053204 -0.29359 -0.064804 -0.5932 -0.035195 -0.89 c0.1284 -0.9256 0.1548 -1.8604 0.35961 -2.7764 c0.11238 -0.5484 0.26039 -1.0888 0.4432 -1.618 c0.5296 -1.4388 1.2192 -2.8136 2.0568 -4.098 c0.30281 -0.4724 0.6564 -0.9104 1.0544 -1.306 c0.1332 -0.13121 0.2716 -0.2584 0.3952 -0.39762 c1.3304 -1.4964 3.0524 -2.384 4.8792 -3.0888 c1.0064 -0.4044 2.0608 -0.6776 3.1368 -0.8132 c0.25922 -0.03 0.518 -0.059608 0.7784 -0.076016 c1.382 -0.056016 2.766 0.015976 4.1344 0.21438 c0.5168 0.062812 1.0252 0.19961 1.5352 0.31039 c1.196 0.31 2.3312 0.818 3.3596 1.5024 c0.2868 0.17359 0.5784 0.34121 0.8752 0.4968 c0.2216 0.1116 0.4804 0.12238 0.7104 0.03 l0.444 -0.5276 c0.30719 -0.10879 0.6464 -0.0816 0.9328 0.074804 c0.06922 0.1168 0.12043 0.2432 0.15164 0.3752 c0.036797 0.25879 0.038398 0.52116 0.0039844 0.7804 c-0.11559 0.814 -0.11719 1.64 -0.0051952 2.4548 c0.029219 0.5212 0.022812 1.044 -0.018789 1.5644 c-0.016797 0.072384 -0.046408 0.14117 -0.087188 0.20316 c-0.1984 0.17558 -0.4596 0.26238 -0.7236 0.24078 c-0.17238 -0.022812 -0.34078 -0.07082 -0.49916 -0.14281 c-0.6944 -1.4664 -1.6172 -2.8136 -2.734 -3.9912 c-0.9392 -0.97 -2.0788 -1.7244 -3.3388 -2.2104 c-0.7676 -0.2968 -1.5792 -0.466 -2.4016 -0.50044 c-0.522 -0.024414 -1.0464 -0.016406 -1.5692 0 c-0.9392 0.023594 -1.8552 0.2952 -2.6556 0.7872 c-0.4772 0.29199 -0.93956 0.6116 -1.3908 0.9436 c-0.6048 0.4448 -1.1124 1.0084 -1.4916 1.6564 c-0.5868 0.998 -1.214 1.972 -1.7452 3.0032 c-0.4716 0.8952 -0.7444 1.8816 -0.7992 2.8916 c-0.0064064 0.22442 -0.024805 0.448 -0.054412 0.67 c-0.24121 1.6284 -0.28602 3.2796 -0.13402 4.9184 c0.11922 1.4892 0.35844 2.966 0.71524 4.4164 c0.3948 1.6028 1.1284 3.102 2.1516 4.3968 c0.16199 0.2052 0.31438 0.4184 0.47476 0.6252 c0.6968 0.8336 1.5392 1.534 2.486 2.0668 c0.5192 0.30602 1.108 0.4728 1.7104 0.4844 c0.6724 0.039219 1.3464 0.039219 2.0188 0 c1.0088 -0.055196 1.9936 -0.33 2.8852 -0.8056 c1.2652 -0.7248 2.4464 -1.5868 3.522 -2.5708 c0.4084 -0.3848 0.762 -0.8236 1.0516 -1.304 c0.3248 -0.502 0.658 -0.998 0.9948 -1.492 z"></path></g>
			</g>
		</svg>
	